<?xml version="1.0" encoding="UTF-8" standalone="no"?>
<svg
   width="310.01953pt"
   height="117.20857pt"
   viewBox="0 0 310.01953 117.20857"
   version="1.1"
   id="svg117"
   sodipodi:docname="convolution-operation-stride-2.svg"
   inkscape:version="1.2 (dc2aedaf03, 2022-05-15)"
   xmlns:inkscape="http://www.inkscape.org/namespaces/inkscape"
   xmlns:sodipodi="http://sodipodi.sourceforge.net/DTD/sodipodi-0.dtd"
   xmlns="http://www.w3.org/2000/svg"
   xmlns:svg="http://www.w3.org/2000/svg">
  <defs
     id="defs121" />
  <sodipodi:namedview
     id="namedview119"
     pagecolor="#ffffff"
     bordercolor="#000000"
     borderopacity="0.25"
     inkscape:showpageshadow="2"
     inkscape:pageopacity="0.0"
     inkscape:pagecheckerboard="0"
     inkscape:deskcolor="#d1d1d1"
     inkscape:document-units="pt"
     showgrid="false"
     inkscape:zoom="2"
     inkscape:cx="201"
     inkscape:cy="-6.25"
     inkscape:window-width="1920"
     inkscape:window-height="1010"
     inkscape:window-x="2873"
     inkscape:window-y="-6"
     inkscape:window-maximized="1"
     inkscape:current-layer="surface1" />
  <g
     id="surface1"
     transform="translate(-0.6519033,-131.74712)">
    <text
       xml:space="preserve"
       style="font-size:9px;fill:#000000;stroke-width:0.75"
       x="81.329262"
       y="46.429352"
       id="text483"><tspan
         sodipodi:role="line"
         id="tspan481"
         style="stroke-width:0.75"
         x="81.329262"
         y="46.429352" /></text>
    <path
       style="fill:#ffffff;fill-opacity:1;fill-rule:nonzero;stroke:#000000;stroke-width:1.25;stroke-linecap:round;stroke-linejoin:round;stroke-miterlimit:10;stroke-opacity:1"
       d="m 287.54642,191.46977 h 22.5 v 22.5 h -22.5 z m 0,0"
       id="path2-8"
       inkscape:export-filename="convolution-operation-stride-1.png"
       inkscape:export-xdpi="96"
       inkscape:export-ydpi="96" />
    <path
       style="fill:#ffffff;fill-opacity:1;fill-rule:nonzero;stroke:#000000;stroke-width:1.25;stroke-linecap:round;stroke-linejoin:round;stroke-miterlimit:10;stroke-opacity:1"
       d="m 265.04642,191.46977 h 22.5 v 22.5 h -22.5 z m 0,0"
       id="path8-6" />
    <path
       style="fill:#ffffff;fill-opacity:1;fill-rule:nonzero;stroke:#000000;stroke-width:1.25;stroke-linecap:round;stroke-linejoin:round;stroke-miterlimit:10;stroke-opacity:1"
       d="m 287.54642,168.96977 h 22.5 v 22.5 h -22.5 z m 0,0"
       id="path14-7" />
    <path
       style="fill:#b0d9ff;fill-opacity:1;fill-rule:nonzero;stroke:#000000;stroke-width:1.25;stroke-linecap:round;stroke-linejoin:round;stroke-miterlimit:10;stroke-opacity:1"
       d="m 265.04642,168.96977 h 22.5 v 22.5 h -22.5 z m 0,0"
       id="path20-0" />
    <path
       style="fill:#000000;fill-opacity:1;fill-rule:nonzero;stroke:none"
       d="m 136.33549,191.00103 0.50782,-1.5625 c 1.15625,0.40625 2.0039,0.75781 2.53906,1.05469 -0.14453,-1.3125 -0.21485,-2.22657 -0.21485,-2.73438 h 1.58204 c -0.0273,0.73438 -0.11329,1.64063 -0.25391,2.73438 0.75391,-0.375 1.62109,-0.72657 2.59766,-1.05469 l 0.50781,1.5625 c -0.9375,0.30469 -1.85156,0.5039 -2.73438,0.60547 0.44141,0.39062 1.07422,1.08593 1.89453,2.07031 l -1.32812,0.9375 c -0.42969,-0.57031 -0.93359,-1.35547 -1.50391,-2.36328 -0.54687,1.04687 -1.02343,1.83203 -1.42578,2.36328 l -1.30859,-0.9375 c 0.85937,-1.03906 1.46875,-1.72656 1.83594,-2.07031 -0.95313,-0.17969 -1.85157,-0.37891 -2.69532,-0.60547 z m 0,0"
       id="path26-2" />
    <path
       style="fill:#000000;fill-opacity:1;fill-rule:nonzero;stroke:none"
       d="m 241.76518,188.87212 h -10.64453 v -1.83594 h 10.64453 z m 0,4.88281 H 231.12065 V 191.919 h 10.64453 z m 0,0"
       id="path28-5" />
    <path
       style="fill:#ffffff;fill-opacity:1;fill-rule:nonzero;stroke:#000000;stroke-width:1.25;stroke-linecap:round;stroke-linejoin:round;stroke-miterlimit:10;stroke-opacity:1"
       d="m 23.776903,203.22368 h 22.5 v 22.5 h -22.5 z m 0,0"
       id="path30-3" />
    <path
       style="fill:#b0d9ff;fill-opacity:1;fill-rule:nonzero;stroke:#000000;stroke-width:1.25;stroke-linecap:round;stroke-linejoin:round;stroke-miterlimit:10;stroke-opacity:1"
       d="m 23.776903,158.22368 h 22.5 v 22.5 h -22.5 z m 0,0"
       id="path34-0" />
    <path
       style="fill:#b0d9ff;fill-opacity:1;fill-rule:nonzero;stroke:#000000;stroke-width:1.25;stroke-linecap:round;stroke-linejoin:round;stroke-miterlimit:10;stroke-opacity:1"
       d="m 23.776903,180.72368 h 22.5 v 22.5 h -22.5 z m 0,0"
       id="path38-4" />
    <path
       style="fill:#ffffff;fill-opacity:1;fill-rule:nonzero;stroke:#000000;stroke-width:1.25;stroke-linecap:round;stroke-linejoin:round;stroke-miterlimit:10;stroke-opacity:1"
       d="M 1.2769033,203.22368 H 23.776903 v 22.5 H 1.2769033 Z m 0,0"
       id="path42-5" />
    <path
       style="fill:#ffffff;fill-opacity:1;fill-rule:nonzero;stroke:#000000;stroke-width:1.25;stroke-linecap:round;stroke-linejoin:round;stroke-miterlimit:10;stroke-opacity:1"
       d="m 46.276903,180.72368 h 22.5 v 22.5 h -22.5 z m 0,0"
       id="path46-8" />
    <path
       style="fill:#b0d9ff;fill-opacity:1;fill-rule:nonzero;stroke:#000000;stroke-width:1.25;stroke-linecap:round;stroke-linejoin:round;stroke-miterlimit:10;stroke-opacity:1"
       d="M 1.2769033,180.72368 H 23.776903 v 22.5 H 1.2769033 Z m 0,0"
       id="path50-3" />
    <path
       style="fill:#ffffff;fill-opacity:1;fill-rule:nonzero;stroke:#000000;stroke-width:1.25;stroke-linecap:round;stroke-linejoin:round;stroke-miterlimit:10;stroke-opacity:1"
       d="m 46.276903,203.22368 h 22.5 v 22.5 h -22.5 z m 0,0"
       id="path54-0" />
    <path
       style="fill:#ffffff;fill-opacity:1;fill-rule:nonzero;stroke:#000000;stroke-width:1.25;stroke-linecap:round;stroke-linejoin:round;stroke-miterlimit:10;stroke-opacity:1"
       d="m 46.276903,158.22368 h 22.5 v 22.5 h -22.5 z m 0,0"
       id="path58-2" />
    <path
       style="fill:#ffffff;fill-opacity:1;fill-rule:nonzero;stroke:#000000;stroke-width:1.25;stroke-linecap:round;stroke-linejoin:round;stroke-miterlimit:10;stroke-opacity:1"
       d="m 68.851903,158.22325 h 22.5 v 22.5 h -22.5 z m 0,0"
       id="path58-7-0" />
    <path
       style="fill:#ffffff;fill-opacity:1;fill-rule:nonzero;stroke:#000000;stroke-width:1.25;stroke-linecap:round;stroke-linejoin:round;stroke-miterlimit:10;stroke-opacity:1"
       d="m 68.851903,180.91219 h 22.5 v 22.5 h -22.5 z m 0,0"
       id="path58-7-2-9" />
    <path
       style="fill:#ffffff;fill-opacity:1;fill-rule:nonzero;stroke:#000000;stroke-width:1.25;stroke-linecap:round;stroke-linejoin:round;stroke-miterlimit:10;stroke-opacity:1"
       d="m 68.851903,203.22325 h 22.5 v 22.5 h -22.5 z m 0,0"
       id="path58-7-2-0-6" />
    <path
       style="fill:#ffffff;fill-opacity:1;fill-rule:nonzero;stroke:#000000;stroke-width:1.25;stroke-linecap:round;stroke-linejoin:round;stroke-miterlimit:10;stroke-opacity:1"
       d="m 23.776903,225.83068 h 22.5 v 22.50001 h -22.5 z m 0,0"
       id="path30-1-5" />
    <path
       style="fill:#ffffff;fill-opacity:1;fill-rule:nonzero;stroke:#000000;stroke-width:1.25;stroke-linecap:round;stroke-linejoin:round;stroke-miterlimit:10;stroke-opacity:1"
       d="M 1.2769033,225.83068 H 23.776903 v 22.50001 H 1.2769033 Z m 0,0"
       id="path42-8-9" />
    <path
       style="fill:#ffffff;fill-opacity:1;fill-rule:nonzero;stroke:#000000;stroke-width:1.25;stroke-linecap:round;stroke-linejoin:round;stroke-miterlimit:10;stroke-opacity:1"
       d="m 46.276903,225.83068 h 22.5 v 22.50001 h -22.5 z m 0,0"
       id="path54-3-5" />
    <path
       style="fill:#ffffff;fill-opacity:1;fill-rule:nonzero;stroke:#000000;stroke-width:1.25;stroke-linecap:round;stroke-linejoin:round;stroke-miterlimit:10;stroke-opacity:1"
       d="m 68.851903,225.83025 h 22.5 v 22.5 h -22.5 z m 0,0"
       id="path58-7-2-0-5-4" />
    <path
       style="fill:#b0d9ff;fill-opacity:1;fill-rule:nonzero;stroke:#000000;stroke-width:1.25;stroke-linecap:round;stroke-linejoin:round;stroke-miterlimit:10;stroke-opacity:1"
       d="M 1.2769033,158.22368 H 23.776903 v 22.5 H 1.2769033 Z m 0,0"
       id="path62-8" />
    <path
       style="fill:#b0d9ff;fill-opacity:1;fill-rule:nonzero;stroke:#000000;stroke-width:1.25;stroke-linecap:round;stroke-linejoin:round;stroke-miterlimit:10;stroke-opacity:1"
       d="m 164.81596,191.46977 h 22.5 v 22.5 h -22.5 z m 0,0"
       id="path66-5" />
    <path
       style="fill:#000000;fill-opacity:1;fill-rule:nonzero;stroke:none"
       d="m 178.60112,204.88775 v 0.95703 h -5.33203 c 0,-0.23438 0.0391,-0.45703 0.11719,-0.6836 0.14453,-0.35937 0.36328,-0.72265 0.66406,-1.07421 0.30078,-0.35157 0.73047,-0.75 1.28906,-1.21094 0.87109,-0.72656 1.45703,-1.29688 1.75781,-1.71875 0.3125,-0.41406 0.46875,-0.8086 0.46875,-1.19141 0,-0.39062 -0.14453,-0.71094 -0.42968,-0.97656 -0.27344,-0.27344 -0.63282,-0.41016 -1.07422,-0.41016 -0.48047,0 -0.86719,0.14844 -1.15235,0.42969 -0.28515,0.28906 -0.42968,0.68359 -0.42968,1.19141 l -1.01563,-0.11719 c 0.0664,-0.75 0.32422,-1.32813 0.78125,-1.71875 0.45703,-0.39844 1.06641,-0.60547 1.83594,-0.60547 0.76953,0 1.375,0.21484 1.8164,0.64453 0.45704,0.42969 0.6836,0.95703 0.6836,1.58203 0,0.32813 -0.0664,0.64453 -0.19531,0.95703 -0.12891,0.3125 -0.35157,0.64454 -0.66407,0.9961 -0.30078,0.34375 -0.80078,0.8125 -1.5039,1.40625 -0.59766,0.5 -0.98438,0.83594 -1.15235,1.01562 -0.16797,0.1875 -0.30468,0.36328 -0.41015,0.52735 z m 0,0"
       id="path68-0" />
    <path
       style="fill:#b0d9ff;fill-opacity:1;fill-rule:nonzero;stroke:#000000;stroke-width:1.25;stroke-linecap:round;stroke-linejoin:round;stroke-miterlimit:10;stroke-opacity:1"
       d="m 187.31596,191.46977 h 22.5 v 22.5 h -22.5 z m 0,0"
       id="path70-1" />
    <path
       style="fill:#000000;fill-opacity:1;fill-rule:nonzero;stroke:none"
       d="m 195.90581,203.71587 0.99609,-0.13672 c 0.11719,0.5625 0.30469,0.96875 0.56641,1.21094 0.27343,0.25 0.61328,0.37109 1.01562,0.37109 0.45703,0 0.83984,-0.15625 1.15234,-0.46875 0.32422,-0.32031 0.48829,-0.72656 0.48829,-1.21093 0,-0.45313 -0.14844,-0.82422 -0.44922,-1.11328 -0.28516,-0.29688 -0.65625,-0.44922 -1.11328,-0.44922 -0.19532,0 -0.42969,0.0391 -0.70313,0.11718 l 0.11719,-0.8789 c 0.0664,0.0156 0.11719,0.0195 0.15625,0.0195 0.41797,0 0.79297,-0.10547 1.13281,-0.33203 0.33984,-0.21875 0.50781,-0.55469 0.50781,-1.01563 0,-0.35937 -0.125,-0.66406 -0.37109,-0.89843 -0.24609,-0.23438 -0.56641,-0.35157 -0.95703,-0.35157 -0.37891,0 -0.69531,0.12891 -0.95703,0.3711 -0.2461,0.23437 -0.41016,0.59765 -0.48828,1.07422 l -0.9961,-0.17579 c 0.12891,-0.66406 0.40235,-1.17578 0.82031,-1.54296 0.42969,-0.35938 0.96485,-0.54688 1.60157,-0.54688 0.4414,0 0.84765,0.0977 1.21093,0.29297 0.37891,0.1875 0.66407,0.44141 0.85938,0.76172 0.19531,0.32812 0.29297,0.67578 0.29297,1.03515 0,0.35157 -0.0977,0.67579 -0.29297,0.95704 -0.18359,0.28906 -0.45703,0.51953 -0.82031,0.68359 0.48047,0.10937 0.85156,0.33203 1.11328,0.68359 0.26172,0.34375 0.39062,0.77344 0.39062,1.28907 0,0.70312 -0.26172,1.30468 -0.78125,1.79687 -0.50781,0.48438 -1.15234,0.72266 -1.93359,0.72266 -0.70313,0 -1.28906,-0.20313 -1.75781,-0.625 -0.46875,-0.41407 -0.73438,-0.96094 -0.80078,-1.64063 z m 0,0"
       id="path72-1" />
    <path
       style="fill:#b0d9ff;fill-opacity:1;fill-rule:nonzero;stroke:#000000;stroke-width:1.25;stroke-linecap:round;stroke-linejoin:round;stroke-miterlimit:10;stroke-opacity:1"
       d="m 187.31596,168.96977 h 22.5 v 22.5 h -22.5 z m 0,0"
       id="path74-8" />
    <path
       style="fill:#000000;fill-opacity:1;fill-rule:nonzero;stroke:none"
       d="m 199.63627,183.34478 h -0.99609 v -6.3086 c -0.23437,0.23438 -0.54687,0.46875 -0.9375,0.70313 -0.39062,0.22656 -0.73437,0.38672 -1.03516,0.48828 v -0.95703 c 0.54688,-0.24219 1.02735,-0.55078 1.44532,-0.91797 0.41797,-0.375 0.71093,-0.74219 0.8789,-1.09375 h 0.64453 z m 0,0"
       id="path76-2" />
    <path
       style="fill:#b0d9ff;fill-opacity:1;fill-rule:nonzero;stroke:#000000;stroke-width:1.25;stroke-linecap:round;stroke-linejoin:round;stroke-miterlimit:10;stroke-opacity:1"
       d="m 164.81596,168.96977 h 22.5 v 22.5 h -22.5 z m 0,0"
       id="path78-3" />
    <path
       style="fill:#000000;fill-opacity:1;fill-rule:nonzero;stroke:none"
       d="m 173.40581,179.37993 c 0,-0.94531 0.0977,-1.71875 0.29297,-2.30468 0.19531,-0.58594 0.48046,-1.03516 0.85937,-1.34766 0.39063,-0.3125 0.87891,-0.46875 1.46484,-0.46875 0.44141,0 0.82813,0.0937 1.15235,0.27344 0.32422,0.17187 0.59375,0.42187 0.80078,0.74219 0.20703,0.32812 0.37109,0.72265 0.48828,1.1914 0.12891,0.46875 0.19531,1.10938 0.19531,1.91406 0,0.9375 -0.0977,1.69922 -0.29297,2.28516 -0.19531,0.57813 -0.48828,1.02734 -0.8789,1.34766 -0.37891,0.3125 -0.86719,0.46875 -1.46485,0.46875 -0.76953,0 -1.375,-0.27735 -1.8164,-0.83985 -0.53516,-0.66406 -0.80078,-1.74609 -0.80078,-3.26172 z m 1.01562,0 c 0,1.32032 0.14844,2.19922 0.44922,2.63672 0.3125,0.42969 0.69531,0.64453 1.15234,0.64453 0.45704,0 0.83985,-0.21484 1.15235,-0.64453 0.3125,-0.4375 0.46875,-1.3164 0.46875,-2.63672 0,-1.32812 -0.15625,-2.20703 -0.46875,-2.63671 -0.3125,-0.4375 -0.69531,-0.66407 -1.15235,-0.66407 -0.45703,0 -0.82031,0.19141 -1.09375,0.56641 -0.33984,0.5 -0.50781,1.40625 -0.50781,2.73437 z m 0,0"
       id="path80-9" />
    <path
       style="fill:#000000;fill-opacity:1;fill-rule:nonzero;stroke:none"
       d="m 271.20659,136.02446 c 0,-1.32812 0.35937,-2.36718 1.07422,-3.125 0.71484,-0.76562 1.64062,-1.15234 2.77343,-1.15234 0.74219,0 1.41407,0.1875 2.01172,0.54688 0.59766,0.35156 1.05469,0.85156 1.36719,1.48437 0.3125,0.64063 0.46875,1.35938 0.46875,2.14844 0,0.82031 -0.16406,1.55859 -0.48828,2.20703 -0.32422,0.64062 -0.79297,1.12891 -1.40625,1.46484 -0.59766,0.32813 -1.25,0.48828 -1.95313,0.48828 -0.7539,0 -1.43359,-0.17968 -2.03125,-0.54687 -0.59765,-0.36328 -1.05468,-0.86328 -1.36718,-1.50391 -0.30079,-0.63281 -0.44922,-1.30859 -0.44922,-2.01172 z m 1.09375,0.0195 c 0,0.97657 0.26172,1.75 0.78125,2.30469 0.51953,0.54688 1.17968,0.82031 1.97265,0.82031 0.79297,0 1.45313,-0.27734 1.97266,-0.83984 0.51953,-0.55859 0.78125,-1.35547 0.78125,-2.40234 0,-0.64844 -0.10938,-1.21485 -0.33203,-1.69922 -0.22266,-0.49219 -0.54688,-0.87891 -0.97656,-1.15235 -0.42969,-0.27343 -0.90625,-0.41015 -1.42579,-0.41015 -0.7539,0 -1.40625,0.26172 -1.95312,0.78125 -0.54688,0.52344 -0.82031,1.38672 -0.82031,2.59765 z m 0,0"
       id="path82-0" />
    <path
       style="fill:#000000;fill-opacity:1;fill-rule:nonzero;stroke:none"
       d="m 283.98002,139.95025 v -0.85938 c -0.45703,0.66406 -1.07421,0.99609 -1.85546,0.99609 -0.33985,0 -0.65625,-0.0703 -0.95704,-0.19531 -0.30078,-0.14062 -0.52734,-0.3125 -0.68359,-0.50781 -0.14453,-0.19531 -0.24219,-0.43359 -0.29297,-0.72266 -0.0391,-0.19531 -0.0586,-0.50781 -0.0586,-0.9375 v -3.61328 h 0.97656 v 3.24219 c 0,0.52344 0.0273,0.87109 0.0781,1.03516 0.0508,0.26562 0.17578,0.46875 0.37109,0.625 0.20703,0.14843 0.46094,0.21484 0.76172,0.21484 0.30078,0 0.57812,-0.0664 0.83984,-0.21484 0.26172,-0.15625 0.44141,-0.35938 0.54688,-0.625 0.10547,-0.25782 0.15625,-0.64454 0.15625,-1.15235 v -3.125 h 0.99609 v 5.83985 z m 0,0"
       id="path84-5" />
    <path
       style="fill:#000000;fill-opacity:1;fill-rule:nonzero;stroke:none"
       d="m 288.57377,139.07134 0.13672,0.85937 c -0.28906,0.0625 -0.53515,0.0977 -0.74218,0.0977 -0.36719,0 -0.64454,-0.0586 -0.83985,-0.17578 -0.19531,-0.11718 -0.33984,-0.26172 -0.42969,-0.44922 -0.0781,-0.17968 -0.11718,-0.5664 -0.11718,-1.15234 v -3.35937 h -0.72266 v -0.78125 h 0.72266 v -1.44532 l 0.99609,-0.58594 v 2.03125 h 0.99609 v 0.78125 h -0.99609 v 3.39844 c 0,0.28906 0.0117,0.46875 0.0391,0.54687 0.0391,0.0781 0.0977,0.14454 0.17578,0.19532 0.0781,0.0547 0.1875,0.0781 0.33204,0.0781 0.11718,0 0.26562,-0.0117 0.44921,-0.0391 z m 0,0"
       id="path86-7" />
    <path
       style="fill:#000000;fill-opacity:1;fill-rule:nonzero;stroke:none"
       d="m 289.53081,142.17681 v -8.06641 h 0.89843 v 0.76172 c 0.20703,-0.29687 0.44141,-0.51562 0.70313,-0.66406 0.27344,-0.14063 0.60547,-0.21485 0.99609,-0.21485 0.49219,0 0.92969,0.13282 1.3086,0.39063 0.375,0.25 0.66406,0.60547 0.85937,1.07422 0.19531,0.46875 0.29297,0.97656 0.29297,1.52344 0,0.60156 -0.11328,1.14062 -0.33203,1.62109 -0.21094,0.48437 -0.51563,0.85547 -0.91797,1.11328 -0.40625,0.24219 -0.83594,0.37109 -1.28906,0.37109 -0.32813,0 -0.6211,-0.0742 -0.87891,-0.21484 -0.26172,-0.14062 -0.47656,-0.31641 -0.64453,-0.52734 v 2.83203 z m 0.89843,-5.11719 c 0,0.75781 0.14844,1.32031 0.44922,1.67969 0.3125,0.35156 0.6836,0.52734 1.11328,0.52734 0.42969,0 0.80078,-0.17969 1.11328,-0.54687 0.32422,-0.375 0.48829,-0.95703 0.48829,-1.73828 0,-0.74219 -0.15625,-1.29297 -0.46875,-1.66016 -0.30079,-0.375 -0.66407,-0.56641 -1.09375,-0.56641 -0.41797,0 -0.78907,0.20313 -1.11329,0.60547 -0.32812,0.39063 -0.48828,0.95703 -0.48828,1.69922 z m 0,0"
       id="path88-9" />
    <path
       style="fill:#000000;fill-opacity:1;fill-rule:nonzero;stroke:none"
       d="m 299.61284,139.95025 v -0.85938 c -0.46094,0.66406 -1.07422,0.99609 -1.85547,0.99609 -0.34375,0 -0.66016,-0.0703 -0.95703,-0.19531 -0.30469,-0.14062 -0.52735,-0.3125 -0.6836,-0.50781 -0.14843,-0.19531 -0.24609,-0.43359 -0.29297,-0.72266 -0.0391,-0.19531 -0.0586,-0.50781 -0.0586,-0.9375 v -3.61328 h 0.97656 v 3.24219 c 0,0.52344 0.0234,0.87109 0.0781,1.03516 0.0469,0.26562 0.17578,0.46875 0.37109,0.625 0.20313,0.14843 0.45703,0.21484 0.76172,0.21484 0.29688,0 0.57422,-0.0664 0.83984,-0.21484 0.25782,-0.15625 0.4375,-0.35938 0.54688,-0.625 0.10156,-0.25782 0.15625,-0.64454 0.15625,-1.15235 v -3.125 h 0.99609 v 5.83985 z m 0,0"
       id="path90-6" />
    <path
       style="fill:#000000;fill-opacity:1;fill-rule:nonzero;stroke:none"
       d="m 304.20659,139.07134 0.13672,0.85937 c -0.28907,0.0625 -0.53907,0.0977 -0.74219,0.0977 -0.36719,0 -0.64453,-0.0586 -0.83985,-0.17578 -0.19531,-0.11718 -0.34375,-0.26172 -0.42968,-0.44922 -0.0781,-0.17968 -0.11719,-0.5664 -0.11719,-1.15234 v -3.35937 h -0.72266 v -0.78125 h 0.72266 v -1.44532 l 0.99609,-0.58594 v 2.03125 h 0.9961 v 0.78125 h -0.9961 v 3.39844 c 0,0.28906 0.008,0.46875 0.0391,0.54687 0.0391,0.0781 0.0977,0.14454 0.17578,0.19532 0.0781,0.0547 0.18359,0.0781 0.33203,0.0781 0.11719,0 0.26172,-0.0117 0.44922,-0.0391 z m 0,0"
       id="path92-6" />
    <path
       style="fill:#000000;fill-opacity:1;fill-rule:nonzero;stroke:none"
       d="m 171.2144,139.95025 v -8.04688 h 1.07422 v 3.98438 l 4.00391,-3.98438 h 1.42578 l -3.35938,3.26172 3.51563,4.78516 h -1.40625 l -2.8711,-4.08204 -1.30859,1.28907 v 2.79297 z m 0,0"
       id="path94-7" />
    <path
       style="fill:#000000;fill-opacity:1;fill-rule:nonzero;stroke:none"
       d="m 182.62065,138.07525 1.03516,0.11718 c -0.16797,0.60157 -0.47657,1.07032 -0.91797,1.40625 -0.42969,0.32813 -0.98438,0.48828 -1.66016,0.48828 -0.84766,0 -1.52344,-0.25781 -2.03125,-0.78125 -0.49609,-0.53125 -0.74219,-1.27343 -0.74219,-2.22656 0,-0.97656 0.25391,-1.73047 0.76172,-2.26562 0.50781,-0.54688 1.16406,-0.82032 1.97266,-0.82032 0.78125,0 1.41406,0.26954 1.89453,0.80079 0.49609,0.52343 0.74219,1.26562 0.74219,2.22656 0,0.0703 0,0.15625 0,0.27344 h -4.35547 c 0.0391,0.64062 0.22265,1.1289 0.54687,1.46484 0.32422,0.33984 0.73438,0.50781 1.23047,0.50781 0.36328,0 0.67188,-0.0898 0.91797,-0.27344 0.26172,-0.19531 0.46094,-0.49609 0.60547,-0.91796 z m -3.24219,-1.60157 h 3.26172 c -0.0391,-0.49218 -0.16406,-0.86328 -0.37109,-1.11328 -0.3125,-0.375 -0.72266,-0.5664 -1.23047,-0.5664 -0.45703,0 -0.83985,0.15625 -1.15235,0.46875 -0.30078,0.30468 -0.46875,0.70312 -0.50781,1.21093 z m 0,0"
       id="path96-7" />
    <path
       style="fill:#000000;fill-opacity:1;fill-rule:nonzero;stroke:none"
       d="m 184.87456,139.95025 v -5.83985 h 0.89843 v 0.89844 c 0.22266,-0.41406 0.42969,-0.6875 0.625,-0.82031 0.19532,-0.12891 0.41016,-0.19532 0.64453,-0.19532 0.32422,0 0.66407,0.10547 1.01563,0.3125 l -0.35156,0.91797 c -0.23438,-0.14062 -0.47657,-0.21484 -0.72266,-0.21484 -0.20703,0 -0.40234,0.0664 -0.58594,0.19531 -0.16797,0.13281 -0.29297,0.3125 -0.37109,0.54688 -0.10547,0.35156 -0.15625,0.73828 -0.15625,1.15234 v 3.04688 z m 0,0"
       id="path98-2" />
    <path
       style="fill:#000000;fill-opacity:1;fill-rule:nonzero;stroke:none"
       d="m 188.64018,139.95025 v -5.83985 h 0.89844 v 0.83985 c 0.41797,-0.63282 1.03515,-0.95704 1.85547,-0.95704 0.35156,0 0.67187,0.0664 0.95703,0.19532 0.30078,0.11718 0.51953,0.28515 0.66406,0.48828 0.14453,0.19531 0.24609,0.4375 0.3125,0.72265 0.0391,0.1836 0.0586,0.50391 0.0586,0.95704 v 3.59375 h -0.99609 v -3.55469 c 0,-0.39844 -0.0391,-0.70313 -0.11719,-0.89844 -0.0781,-0.19531 -0.21484,-0.35156 -0.41015,-0.46875 -0.19532,-0.125 -0.42188,-0.19531 -0.6836,-0.19531 -0.41797,0 -0.78125,0.13672 -1.09375,0.41015 -0.30078,0.26172 -0.44922,0.76954 -0.44922,1.52344 v 3.1836 z m 0,0"
       id="path100-6" />
    <path
       style="fill:#000000;fill-opacity:1;fill-rule:nonzero;stroke:none"
       d="m 198.88237,138.07525 1.03515,0.11718 c -0.17187,0.60157 -0.47656,1.07032 -0.91796,1.40625 -0.42969,0.32813 -0.98438,0.48828 -1.66016,0.48828 -0.84766,0 -1.52344,-0.25781 -2.03125,-0.78125 -0.49609,-0.53125 -0.74219,-1.27343 -0.74219,-2.22656 0,-0.97656 0.25391,-1.73047 0.76172,-2.26562 0.50781,-0.54688 1.16406,-0.82032 1.97266,-0.82032 0.78125,0 1.41015,0.26954 1.89453,0.80079 0.49219,0.52343 0.74219,1.26562 0.74219,2.22656 0,0.0703 0,0.15625 0,0.27344 h -4.35547 c 0.0391,0.64062 0.21875,1.1289 0.54687,1.46484 0.32422,0.33984 0.73438,0.50781 1.23047,0.50781 0.36328,0 0.66797,-0.0898 0.91797,-0.27344 0.25781,-0.19531 0.46094,-0.49609 0.60547,-0.91796 z m -3.24219,-1.60157 h 3.26172 c -0.0391,-0.49218 -0.16406,-0.86328 -0.37109,-1.11328 -0.3125,-0.375 -0.72266,-0.5664 -1.23047,-0.5664 -0.45703,0 -0.83985,0.15625 -1.15235,0.46875 -0.30078,0.30468 -0.46875,0.70312 -0.50781,1.21093 z m 0,0"
       id="path102-3" />
    <path
       style="fill:#000000;fill-opacity:1;fill-rule:nonzero;stroke:none"
       d="m 201.13627,139.95025 v -8.04688 h 0.97657 v 8.04688 z m 0,0"
       id="path104-6" />
    <path
       style="fill:#000000;fill-opacity:1;fill-rule:nonzero;stroke:none"
       d="m 24.819873,139.95025 v -8.04688 h 1.05469 v 8.04688 z m 0,0"
       id="path106-3" />
    <path
       style="fill:#000000;fill-opacity:1;fill-rule:nonzero;stroke:none"
       d="m 27.632373,139.95025 v -5.83985 h 0.89844 v 0.83985 c 0.41796,-0.63282 1.03515,-0.95704 1.85546,-0.95704 0.35157,0 0.67188,0.0664 0.95704,0.19532 0.30078,0.11718 0.51953,0.28515 0.66406,0.48828 0.14453,0.19531 0.24609,0.4375 0.3125,0.72265 0.0391,0.1836 0.0586,0.50391 0.0586,0.95704 v 3.59375 h -0.99609 v -3.55469 c 0,-0.39844 -0.0391,-0.70313 -0.11719,-0.89844 -0.0781,-0.19531 -0.21484,-0.35156 -0.41016,-0.46875 -0.19531,-0.125 -0.42187,-0.19531 -0.68359,-0.19531 -0.41797,0 -0.78125,0.13672 -1.09375,0.41015 -0.30078,0.26172 -0.44922,0.76954 -0.44922,1.52344 v 3.1836 z m 0,0"
       id="path108-0" />
    <path
       style="fill:#000000;fill-opacity:1;fill-rule:nonzero;stroke:none"
       d="m 33.886273,142.17681 v -8.06641 h 0.89844 v 0.76172 c 0.20703,-0.29687 0.44141,-0.51562 0.70313,-0.66406 0.27343,-0.14063 0.60547,-0.21485 0.99609,-0.21485 0.49219,0 0.92969,0.13282 1.30859,0.39063 0.375,0.25 0.66407,0.60547 0.85938,1.07422 0.19531,0.46875 0.29297,0.97656 0.29297,1.52344 0,0.60156 -0.11328,1.14062 -0.33203,1.62109 -0.21094,0.48437 -0.51563,0.85547 -0.91797,1.11328 -0.40625,0.24219 -0.83594,0.37109 -1.28906,0.37109 -0.32813,0 -0.6211,-0.0742 -0.87891,-0.21484 -0.26172,-0.14062 -0.47656,-0.31641 -0.64453,-0.52734 v 2.83203 z m 0.89844,-5.11719 c 0,0.75781 0.14844,1.32031 0.44922,1.67969 0.3125,0.35156 0.68359,0.52734 1.11328,0.52734 0.42969,0 0.80078,-0.17969 1.11328,-0.54687 0.32422,-0.375 0.48828,-0.95703 0.48828,-1.73828 0,-0.74219 -0.15625,-1.29297 -0.46875,-1.66016 -0.30078,-0.375 -0.66406,-0.56641 -1.09375,-0.56641 -0.41796,0 -0.78906,0.20313 -1.11328,0.60547 -0.32812,0.39063 -0.48828,0.95703 -0.48828,1.69922 z m 0,0"
       id="path110-5" />
    <path
       style="fill:#000000;fill-opacity:1;fill-rule:nonzero;stroke:none"
       d="m 43.968313,139.95025 v -0.85938 c -0.46094,0.66406 -1.07422,0.99609 -1.85547,0.99609 -0.34375,0 -0.66016,-0.0703 -0.95703,-0.19531 -0.30469,-0.14062 -0.52735,-0.3125 -0.6836,-0.50781 -0.14844,-0.19531 -0.24609,-0.43359 -0.29297,-0.72266 -0.0391,-0.19531 -0.0586,-0.50781 -0.0586,-0.9375 v -3.61328 h 0.97657 v 3.24219 c 0,0.52344 0.0234,0.87109 0.0781,1.03516 0.0469,0.26562 0.17578,0.46875 0.37109,0.625 0.20312,0.14843 0.45703,0.21484 0.76172,0.21484 0.29687,0 0.57422,-0.0664 0.83984,-0.21484 0.25781,-0.15625 0.4375,-0.35938 0.54688,-0.625 0.10156,-0.25782 0.15625,-0.64454 0.15625,-1.15235 v -3.125 h 0.99609 v 5.83985 z m 0,0"
       id="path112-6" />
    <path
       style="fill:#000000;fill-opacity:1;fill-rule:nonzero;stroke:none"
       d="m 48.558153,139.07134 0.13672,0.85937 c -0.28516,0.0625 -0.53516,0.0977 -0.74219,0.0977 -0.36328,0 -0.64453,-0.0586 -0.83984,-0.17578 -0.19532,-0.11718 -0.33985,-0.26172 -0.42969,-0.44922 -0.0781,-0.17968 -0.11719,-0.5664 -0.11719,-1.15234 v -3.35937 h -0.72265 v -0.78125 h 0.72265 v -1.44532 l 0.9961,-0.58594 v 2.03125 h 0.99609 v 0.78125 h -0.99609 v 3.39844 c 0,0.28906 0.0117,0.46875 0.0391,0.54687 0.0391,0.0781 0.0977,0.14454 0.17578,0.19532 0.0781,0.0547 0.1875,0.0781 0.33203,0.0781 0.11719,0 0.26562,-0.0117 0.44922,-0.0391 z m 0,0"
       id="path114-5" />
    <path
       style="fill:#000000;fill-opacity:1;fill-rule:nonzero;stroke:none"
       d="m 32.425343,210.6065 v -0.95703 h 5.21484 v 0.76171 c -0.50781,0.54688 -1.01562,1.28125 -1.52344,2.1875 -0.50781,0.89844 -0.89843,1.83204 -1.17187,2.79297 -0.19531,0.66407 -0.32031,1.40235 -0.3711,2.20703 h -1.01562 c 0.0117,-0.63281 0.13672,-1.39453 0.37109,-2.28515 0.23438,-0.89844 0.57032,-1.76172 1.01563,-2.59766 0.45312,-0.82812 0.92969,-1.53125 1.42578,-2.10937 z m 0,0"
       id="path32-13" />
    <path
       style="fill:#000000;fill-opacity:1;fill-rule:nonzero;stroke:none"
       d="m 81.455423,240.20525 h -0.9961 v -6.30859 c -0.23437,0.23437 -0.54687,0.46875 -0.9375,0.70312 -0.39062,0.22656 -0.73828,0.38672 -1.03515,0.48828 v -0.95703 c 0.54687,-0.24219 1.02734,-0.55078 1.44531,-0.91797 0.41406,-0.375 0.70703,-0.74219 0.87891,-1.09375 h 0.64453 z m 0,0"
       id="path36-3" />
    <path
       style="fill:#000000;fill-opacity:1;fill-rule:nonzero;stroke:none"
       d="m 80.674173,217.57871 v -1.93359 h -3.4961 v -0.89844 l 3.67188,-5.21484 h 0.82031 v 5.21484 h 1.09375 v 0.89844 h -1.09375 v 1.93359 z m 0,-2.83203 v -3.63281 l -2.51954,3.63281 z m 0,0"
       id="path40-7" />
    <path
       style="fill:#000000;fill-opacity:1;fill-rule:nonzero;stroke:none"
       d="m 15.003463,211.52447 -0.99609,0.0781 c -0.0781,-0.39063 -0.20313,-0.67188 -0.3711,-0.85938 -0.26171,-0.27344 -0.58593,-0.41016 -0.97656,-0.41016 -0.32812,0 -0.60547,0.0898 -0.83984,0.25391 -0.3125,0.23438 -0.5625,0.56641 -0.74219,0.99609 -0.17187,0.42969 -0.26172,1.05079 -0.27344,1.85547 0.23438,-0.35156 0.51953,-0.60937 0.85938,-0.78125 0.35156,-0.17968 0.71484,-0.27343 1.09375,-0.27343 0.66406,0 1.22265,0.24609 1.67969,0.72265 0.46875,0.48438 0.70312,1.10938 0.70312,1.875 0,0.50781 -0.11328,0.98828 -0.33203,1.42578 -0.22266,0.42969 -0.52344,0.76172 -0.89844,0.9961 -0.3789,0.21875 -0.80859,0.33203 -1.28906,0.33203 -0.82031,0 -1.49219,-0.29688 -2.01172,-0.89844 -0.52344,-0.60937 -0.7812497,-1.60937 -0.7812497,-3.00781 0,-1.54688 0.2851597,-2.67969 0.8593797,-3.39844 0.49218,-0.60937 1.17187,-0.91797 2.03125,-0.91797 0.625,0 1.13671,0.1875 1.54296,0.54688 0.40235,0.35156 0.64844,0.83984 0.74219,1.46484 z m -4.04297,3.45703 c 0,0.35156 0.0703,0.68359 0.21485,0.99609 0.14062,0.30469 0.34375,0.53906 0.60547,0.70313 0.25781,0.15625 0.53125,0.23437 0.82031,0.23437 0.41406,0 0.77344,-0.16016 1.07422,-0.48828 0.29687,-0.33594 0.44922,-0.80078 0.44922,-1.38672 0,-0.55469 -0.15235,-0.99609 -0.44922,-1.30859 -0.28907,-0.32032 -0.66016,-0.48828 -1.11328,-0.48828 -0.44532,0 -0.82032,0.16796 -1.13282,0.48828 -0.3125,0.3125 -0.46875,0.73437 -0.46875,1.25 z m 0,0"
       id="path44-5" />
    <path
       style="fill:#000000;fill-opacity:1;fill-rule:nonzero;stroke:none"
       d="m 54.866743,192.98931 1.03516,-0.0977 c 0.0781,0.50782 0.25391,0.89453 0.52734,1.15235 0.28516,0.25 0.625,0.37109 1.01563,0.37109 0.48047,0 0.88281,-0.17578 1.21094,-0.52734 0.33593,-0.35938 0.50781,-0.83985 0.50781,-1.42578 0,-0.57032 -0.16406,-1.01954 -0.48828,-1.34766 -0.3125,-0.32031 -0.72266,-0.48828 -1.23047,-0.48828 -0.32813,0 -0.6211,0.0781 -0.87891,0.23437 -0.25,0.14844 -0.44922,0.32813 -0.60547,0.54688 l -0.91797,-0.11719 0.78125,-4.14062 h 4.00391 v 0.95703 h -3.22266 l -0.42968,2.14843 c 0.48047,-0.32031 0.98828,-0.48828 1.52343,-0.48828 0.70313,0 1.29297,0.2461 1.77735,0.72266 0.48047,0.48437 0.72265,1.10937 0.72265,1.875 0,0.73437 -0.21093,1.36328 -0.625,1.89453 -0.52343,0.65625 -1.23046,0.97656 -2.1289,0.97656 -0.73047,0 -1.32813,-0.19922 -1.79688,-0.60547 -0.45703,-0.41406 -0.71875,-0.96093 -0.78125,-1.64062 z m 0,0"
       id="path48-2" />
    <path
       style="fill:#000000;fill-opacity:1;fill-rule:nonzero;stroke:none"
       d="m 9.8667433,192.96978 0.9960997,-0.13672 c 0.11718,0.5625 0.30468,0.96875 0.5664,1.21094 0.27344,0.25 0.60938,0.37109 1.01563,0.37109 0.45312,0 0.83984,-0.15625 1.15234,-0.46875 0.32422,-0.32031 0.48828,-0.72656 0.48828,-1.21094 0,-0.45312 -0.15234,-0.82422 -0.44922,-1.11328 -0.28906,-0.29687 -0.66015,-0.44922 -1.11328,-0.44922 -0.19531,0 -0.42968,0.0391 -0.70312,0.11719 l 0.11719,-0.87891 c 0.0625,0.0156 0.11718,0.0195 0.15625,0.0195 0.41406,0 0.79296,-0.10547 1.13281,-0.33204 0.33594,-0.21875 0.50781,-0.55468 0.50781,-1.01562 0,-0.35938 -0.125,-0.66406 -0.37109,-0.89844 -0.25,-0.23437 -0.56641,-0.35156 -0.95703,-0.35156 -0.37891,0 -0.69922,0.12891 -0.95704,0.37109 -0.25,0.23438 -0.41015,0.59766 -0.48828,1.07422 l -0.9960897,-0.17578 c 0.1289097,-0.66406 0.4023397,-1.17578 0.8203097,-1.54297 0.42969,-0.35937 0.96094,-0.54687 1.60156,-0.54687 0.44141,0 0.84375,0.0977 1.21094,0.29297 0.375,0.1875 0.66406,0.4414 0.85938,0.76171 0.19531,0.32813 0.29297,0.67579 0.29297,1.03516 0,0.35156 -0.0977,0.67578 -0.29297,0.95703 -0.1836,0.28906 -0.45703,0.51953 -0.82032,0.6836 0.48047,0.10937 0.85157,0.33203 1.11329,0.68359 0.25781,0.34375 0.39062,0.77344 0.39062,1.28906 0,0.70313 -0.26172,1.30469 -0.78125,1.79688 -0.50781,0.48437 -1.15234,0.72265 -1.93359,0.72265 -0.70313,0 -1.28907,-0.20312 -1.75782,-0.625 -0.46875,-0.41406 -0.7382797,-0.96093 -0.8007797,-1.64062 z m 0,0"
       id="path52-2" />
    <path
       style="fill:#000000;fill-opacity:1;fill-rule:nonzero;stroke:none"
       d="m 56.390183,213.22368 c -0.41797,-0.14062 -0.72266,-0.35156 -0.91797,-0.625 -0.19531,-0.28125 -0.29297,-0.625 -0.29297,-1.01562 0,-0.58594 0.20703,-1.07422 0.625,-1.46484 0.42969,-0.39844 0.98828,-0.60547 1.67969,-0.60547 0.70313,0 1.26953,0.21093 1.69922,0.625 0.42969,0.40625 0.64453,0.89843 0.64453,1.48437 0,0.36719 -0.0977,0.69531 -0.29297,0.97656 -0.19531,0.27344 -0.49609,0.48438 -0.89844,0.625 0.49219,0.17188 0.8711,0.44141 1.13282,0.80079 0.25781,0.35156 0.39062,0.77734 0.39062,1.26953 0,0.69531 -0.25,1.26953 -0.74219,1.73828 -0.48437,0.46875 -1.12109,0.70312 -1.91406,0.70312 -0.79687,0 -1.4414,-0.23437 -1.93359,-0.70312 -0.48438,-0.46875 -0.72266,-1.05469 -0.72266,-1.75781 0,-0.51563 0.12891,-0.95704 0.39063,-1.3086 0.27343,-0.35937 0.65625,-0.60937 1.15234,-0.74219 z m -0.19531,-1.66015 c 0,0.38281 0.11719,0.69531 0.35156,0.9375 0.24609,0.23437 0.56641,0.35156 0.95703,0.35156 0.39063,0 0.70313,-0.11719 0.9375,-0.35156 0.2461,-0.24219 0.3711,-0.54688 0.3711,-0.89844 0,-0.35156 -0.125,-0.64844 -0.3711,-0.89844 -0.25,-0.24218 -0.5625,-0.37109 -0.9375,-0.37109 -0.3789,0 -0.6914,0.12891 -0.9375,0.37109 -0.25,0.23438 -0.37109,0.52344 -0.37109,0.85938 z m -0.33203,3.71094 c 0,0.28906 0.0625,0.5625 0.19531,0.82031 0.14062,0.26562 0.34375,0.46484 0.60547,0.60547 0.25781,0.14843 0.54687,0.21484 0.85937,0.21484 0.46875,0 0.85157,-0.14453 1.15235,-0.44922 0.3125,-0.29687 0.46875,-0.68359 0.46875,-1.15234 0,-0.47656 -0.15625,-0.87891 -0.46875,-1.19141 -0.3125,-0.3125 -0.71094,-0.46875 -1.19141,-0.46875 -0.46875,0 -0.85937,0.15625 -1.17187,0.46875 -0.30079,0.3125 -0.44922,0.69922 -0.44922,1.15235 z m 0,0"
       id="path56-4" />
    <path
       style="fill:#000000;fill-opacity:1;fill-rule:nonzero;stroke:none"
       d="m 60.062063,171.64165 v 0.95703 h -5.33204 c 0,-0.23437 0.0391,-0.45703 0.11719,-0.68359 0.14063,-0.35937 0.36328,-0.72266 0.66406,-1.07422 0.29688,-0.35156 0.72657,-0.75 1.28907,-1.21094 0.87109,-0.72656 1.45703,-1.29687 1.75781,-1.71875 0.3125,-0.41406 0.46875,-0.80859 0.46875,-1.1914 0,-0.39063 -0.14453,-0.71094 -0.42969,-0.97656 -0.27344,-0.27344 -0.63281,-0.41016 -1.07422,-0.41016 -0.48437,0 -0.86718,0.14844 -1.15234,0.42969 -0.28906,0.28906 -0.42969,0.68359 -0.42969,1.1914 l -1.01562,-0.11718 c 0.0625,-0.75 0.32422,-1.32813 0.78125,-1.71875 0.45312,-0.39844 1.0664,-0.60547 1.83593,-0.60547 0.76563,0 1.3711,0.21484 1.81641,0.64453 0.45313,0.42969 0.68359,0.95703 0.68359,1.58203 0,0.32812 -0.0664,0.64453 -0.19531,0.95703 -0.13281,0.3125 -0.35156,0.64453 -0.66406,0.99609 -0.30078,0.34375 -0.80078,0.8125 -1.50391,1.40625 -0.60156,0.5 -0.98437,0.83594 -1.15234,1.01563 -0.17188,0.1875 -0.30859,0.36328 -0.41016,0.52734 z m 0,0"
       id="path60-6" />
    <path
       style="fill:#000000;fill-opacity:1;fill-rule:nonzero;stroke:none"
       d="m 37.698773,239.31701 v 0.95703 h -5.33203 c 0,-0.23437 0.0391,-0.45703 0.11719,-0.68359 0.14063,-0.35938 0.36328,-0.72266 0.66406,-1.07422 0.29688,-0.35156 0.72657,-0.75 1.28907,-1.21094 0.87109,-0.72656 1.45703,-1.29687 1.75781,-1.71875 0.3125,-0.41406 0.46875,-0.80859 0.46875,-1.1914 0,-0.39063 -0.14453,-0.71094 -0.42969,-0.97657 -0.27344,-0.27343 -0.63281,-0.41015 -1.07422,-0.41015 -0.48437,0 -0.86719,0.14844 -1.15234,0.42969 -0.28906,0.28906 -0.42969,0.68359 -0.42969,1.1914 l -1.01562,-0.11719 c 0.0625,-0.75 0.32421,-1.32812 0.78125,-1.71875 0.45312,-0.39843 1.0664,-0.60546 1.83593,-0.60546 0.76563,0 1.3711,0.21484 1.81641,0.64453 0.45312,0.42968 0.68359,0.95703 0.68359,1.58203 0,0.32812 -0.0664,0.64453 -0.19531,0.95703 -0.13281,0.3125 -0.35156,0.64453 -0.66406,0.99609 -0.30078,0.34375 -0.80078,0.8125 -1.50391,1.40625 -0.60156,0.5 -0.98437,0.83594 -1.15234,1.01563 -0.17188,0.1875 -0.3086,0.36328 -0.41016,0.52734 z m 0,0"
       id="path60-7-5" />
    <path
       style="fill:#000000;fill-opacity:1;fill-rule:nonzero;stroke:none"
       d="m 60.169483,239.31701 v 0.95703 h -5.33203 c 0,-0.23437 0.0391,-0.45703 0.11718,-0.68359 0.14063,-0.35938 0.36329,-0.72266 0.66407,-1.07422 0.29687,-0.35156 0.72656,-0.75 1.28906,-1.21094 0.87109,-0.72656 1.45703,-1.29687 1.75781,-1.71875 0.3125,-0.41406 0.46875,-0.80859 0.46875,-1.1914 0,-0.39063 -0.14453,-0.71094 -0.42969,-0.97657 -0.27343,-0.27343 -0.63281,-0.41015 -1.07421,-0.41015 -0.48438,0 -0.86719,0.14844 -1.15235,0.42969 -0.28906,0.28906 -0.42969,0.68359 -0.42969,1.1914 l -1.01562,-0.11719 c 0.0625,-0.75 0.32422,-1.32812 0.78125,-1.71875 0.45312,-0.39843 1.06641,-0.60546 1.83594,-0.60546 0.76562,0 1.37109,0.21484 1.8164,0.64453 0.45313,0.42968 0.6836,0.95703 0.6836,1.58203 0,0.32812 -0.0664,0.64453 -0.19532,0.95703 -0.13281,0.3125 -0.35156,0.64453 -0.66406,0.99609 -0.30078,0.34375 -0.80078,0.8125 -1.5039,1.40625 -0.60157,0.5 -0.98438,0.83594 -1.15235,1.01563 -0.17187,0.1875 -0.30859,0.36328 -0.41015,0.52734 z m 0,0"
       id="path60-7-1-4" />
    <path
       style="fill:#000000;fill-opacity:1;fill-rule:nonzero;stroke:none"
       d="m 37.493703,194.16118 v 0.95704 h -5.33203 c 0,-0.23438 0.0391,-0.45704 0.11718,-0.6836 0.14063,-0.35937 0.36328,-0.72265 0.66407,-1.07422 0.29687,-0.35156 0.72656,-0.75 1.28906,-1.21093 0.87109,-0.72657 1.45703,-1.29688 1.75781,-1.71875 0.3125,-0.41407 0.46875,-0.8086 0.46875,-1.19141 0,-0.39063 -0.14453,-0.71094 -0.42969,-0.97656 -0.27343,-0.27344 -0.63281,-0.41016 -1.07422,-0.41016 -0.48437,0 -0.86718,0.14844 -1.15234,0.42969 -0.28906,0.28906 -0.42969,0.68359 -0.42969,1.1914 l -1.01562,-0.11718 c 0.0625,-0.75 0.32422,-1.32813 0.78125,-1.71875 0.45312,-0.39844 1.0664,-0.60547 1.83594,-0.60547 0.76562,0 1.37109,0.21484 1.8164,0.64453 0.45313,0.42969 0.6836,0.95703 0.6836,1.58203 0,0.32813 -0.0664,0.64453 -0.19532,0.95703 -0.13281,0.3125 -0.35156,0.64453 -0.66406,0.9961 -0.30078,0.34375 -0.80078,0.8125 -1.50391,1.40625 -0.60156,0.5 -0.98437,0.83593 -1.15234,1.01562 -0.17187,0.1875 -0.30859,0.36328 -0.41016,0.52734 z m 0,0"
       id="path60-7-1-9-0" />
    <path
       style="fill:#000000;fill-opacity:1;fill-rule:nonzero;stroke:none"
       d="m 77.363623,165.5377 v -0.95704 h 5.21484 v 0.76172 c -0.50781,0.54688 -1.01562,1.28126 -1.52344,2.18751 -0.50781,0.89843 -0.89843,1.83203 -1.17187,2.79296 -0.19531,0.66407 -0.32031,1.40235 -0.37109,2.20704 h -1.01563 c 0.0117,-0.63282 0.13672,-1.39454 0.37109,-2.28516 0.23438,-0.89844 0.57032,-1.76172 1.01563,-2.59766 0.45312,-0.82812 0.92969,-1.53125 1.42578,-2.10937 z m 0,0"
       id="path32-1-3" />
    <path
       style="fill:#000000;fill-opacity:1;fill-rule:nonzero;stroke:none"
       d="m 15.003463,234.13147 -0.99609,0.0781 c -0.0781,-0.39063 -0.20313,-0.67188 -0.3711,-0.85938 -0.26171,-0.27344 -0.58593,-0.41016 -0.97656,-0.41016 -0.32812,0 -0.60547,0.0898 -0.83984,0.25391 -0.3125,0.23437 -0.5625,0.56641 -0.74219,0.9961 -0.17187,0.42968 -0.26172,1.05078 -0.27344,1.85547 0.23438,-0.35157 0.51953,-0.60938 0.85938,-0.78125 0.35156,-0.17969 0.71484,-0.27344 1.09375,-0.27344 0.66406,0 1.22265,0.24609 1.67969,0.72265 0.46875,0.48438 0.70312,1.10938 0.70312,1.875 0,0.50782 -0.11328,0.98829 -0.33203,1.42579 -0.22266,0.42968 -0.52344,0.76171 -0.89844,0.99609 -0.3789,0.21875 -0.80859,0.33203 -1.28906,0.33203 -0.82031,0 -1.49219,-0.29687 -2.01172,-0.89844 -0.52344,-0.60937 -0.7812497,-1.60937 -0.7812497,-3.00781 0,-1.54687 0.2851597,-2.67969 0.8593797,-3.39844 0.49218,-0.60938 1.17187,-0.91797 2.03125,-0.91797 0.625,0 1.13671,0.1875 1.54296,0.54688 0.40235,0.35156 0.64844,0.83984 0.74219,1.46484 z m -4.04297,3.45703 c 0,0.35156 0.0703,0.68359 0.21485,0.99609 0.14062,0.30469 0.34375,0.53906 0.60547,0.70313 0.25781,0.15625 0.53125,0.23437 0.82031,0.23437 0.41406,0 0.77344,-0.16015 1.07422,-0.48828 0.29687,-0.33594 0.44922,-0.80078 0.44922,-1.38672 0,-0.55469 -0.15235,-0.99609 -0.44922,-1.30859 -0.28907,-0.32031 -0.66016,-0.48828 -1.11328,-0.48828 -0.44532,0 -0.82032,0.16797 -1.13282,0.48828 -0.3125,0.3125 -0.46875,0.73437 -0.46875,1.25 z m 0,0"
       id="path44-4-6" />
    <path
       style="fill:#000000;fill-opacity:1;fill-rule:nonzero;stroke:none"
       d="m 78.857763,190.84383 c -0.41797,-0.14063 -0.72266,-0.35157 -0.91797,-0.625 -0.19531,-0.28125 -0.29297,-0.625 -0.29297,-1.01563 0,-0.58594 0.20703,-1.07422 0.625,-1.46485 0.42969,-0.39843 0.98828,-0.60546 1.67969,-0.60546 0.70312,0 1.26953,0.21093 1.69922,0.625 0.42969,0.40625 0.64453,0.89843 0.64453,1.48437 0,0.36719 -0.0977,0.69532 -0.29297,0.97657 -0.19531,0.27343 -0.49609,0.48437 -0.89844,0.625 0.49219,0.17187 0.8711,0.4414 1.13282,0.80078 0.25781,0.35156 0.39062,0.77734 0.39062,1.26953 0,0.69531 -0.25,1.26953 -0.74219,1.73828 -0.48437,0.46875 -1.12109,0.70312 -1.91406,0.70312 -0.79687,0 -1.44141,-0.23437 -1.93359,-0.70312 -0.48438,-0.46875 -0.72266,-1.05469 -0.72266,-1.75781 0,-0.51563 0.12891,-0.95703 0.39063,-1.3086 0.27343,-0.35937 0.65625,-0.60937 1.15234,-0.74218 z m -0.19531,-1.66016 c 0,0.38281 0.11718,0.69531 0.35156,0.9375 0.24609,0.23437 0.56641,0.35156 0.95703,0.35156 0.39063,0 0.70313,-0.11719 0.9375,-0.35156 0.24609,-0.24219 0.37109,-0.54688 0.37109,-0.89844 0,-0.35156 -0.125,-0.64844 -0.37109,-0.89844 -0.25,-0.24219 -0.5625,-0.37109 -0.9375,-0.37109 -0.37891,0 -0.69141,0.1289 -0.9375,0.37109 -0.25,0.23438 -0.37109,0.52344 -0.37109,0.85938 z m -0.33203,3.71094 c 0,0.28906 0.0625,0.5625 0.19531,0.82031 0.14062,0.26562 0.34375,0.46484 0.60547,0.60547 0.25781,0.14844 0.54687,0.21484 0.85937,0.21484 0.46875,0 0.85156,-0.14453 1.15235,-0.44922 0.3125,-0.29687 0.46875,-0.68359 0.46875,-1.15234 0,-0.47656 -0.15625,-0.87891 -0.46875,-1.19141 -0.3125,-0.3125 -0.71094,-0.46875 -1.19141,-0.46875 -0.46875,0 -0.85938,0.15625 -1.17188,0.46875 -0.30078,0.3125 -0.44921,0.69922 -0.44921,1.15235 z m 0,0"
       id="path56-8-7" />
    <path
       style="fill:#000000;fill-opacity:1;fill-rule:nonzero;stroke:none"
       d="m 37.278853,171.64166 v 0.95703 h -5.33203 c 0,-0.23438 0.0391,-0.45703 0.11719,-0.6836 0.14062,-0.35937 0.36328,-0.72265 0.66406,-1.07422 0.29688,-0.35156 0.72656,-0.75 1.28906,-1.21093 0.8711,-0.72657 1.45704,-1.29688 1.75782,-1.71875 0.3125,-0.41407 0.46875,-0.8086 0.46875,-1.19141 0,-0.39063 -0.14453,-0.71094 -0.42969,-0.97656 -0.27344,-0.27344 -0.63281,-0.41016 -1.07422,-0.41016 -0.48437,0 -0.86719,0.14844 -1.15234,0.42969 -0.28907,0.28906 -0.42969,0.68359 -0.42969,1.19141 l -1.01563,-0.11719 c 0.0625,-0.75 0.32422,-1.32813 0.78125,-1.71875 0.45313,-0.39844 1.06641,-0.60547 1.83594,-0.60547 0.76563,0 1.3711,0.21484 1.81641,0.64453 0.45312,0.42969 0.68359,0.95703 0.68359,1.58203 0,0.32813 -0.0664,0.64453 -0.19531,0.95703 -0.13281,0.3125 -0.35156,0.64453 -0.66406,0.9961 -0.30078,0.34375 -0.80078,0.8125 -1.50391,1.40625 -0.60156,0.5 -0.98437,0.83593 -1.15234,1.01562 -0.17188,0.1875 -0.3086,0.36328 -0.41016,0.52735 z m 0,0"
       id="path60-7-1-9-2-7" />
    <path
       style="fill:#000000;fill-opacity:1;fill-rule:nonzero;stroke:none"
       d="m 9.8667433,168.63384 c 0,-0.94531 0.0977,-1.71875 0.2929697,-2.30469 0.19531,-0.58593 0.48047,-1.03515 0.85938,-1.34765 0.39062,-0.3125 0.8789,-0.46875 1.46484,-0.46875 0.44141,0 0.82422,0.0937 1.15234,0.27343 0.32422,0.17188 0.58985,0.42188 0.80079,0.74219 0.20703,0.32813 0.37109,0.72266 0.48828,1.19141 0.1289,0.46875 0.19531,1.10937 0.19531,1.91406 0,0.9375 -0.0977,1.69922 -0.29297,2.28516 -0.19531,0.57812 -0.48828,1.02734 -0.87891,1.34765 -0.3789,0.3125 -0.86718,0.46875 -1.46484,0.46875 -0.76953,0 -1.375,-0.27734 -1.81641,-0.83984 -0.53515,-0.66406 -0.8007797,-1.74609 -0.8007797,-3.26172 z m 1.0156297,0 c 0,1.32031 0.14844,2.19922 0.44922,2.63672 0.3125,0.42969 0.69531,0.64453 1.15234,0.64453 0.45313,0 0.83984,-0.21484 1.15234,-0.64453 0.3125,-0.4375 0.46875,-1.31641 0.46875,-2.63672 0,-1.32812 -0.15625,-2.20703 -0.46875,-2.63672 -0.3125,-0.4375 -0.69921,-0.66406 -1.15234,-0.66406 -0.45703,0 -0.82031,0.19141 -1.09375,0.56641 -0.33984,0.5 -0.50781,1.40625 -0.50781,2.73437 z m 0,0"
       id="path64-4" />
    <text
       xml:space="preserve"
       style="font-size:12px;fill:#000000;stroke-width:0.75"
       x="269.25934"
       y="184.53227"
       id="text517-9"><tspan
         sodipodi:role="line"
         id="tspan515-4"
         style="font-style:normal;font-variant:normal;font-weight:normal;font-stretch:normal;font-size:12px;font-family:Arial;-inkscape-font-specification:Arial;stroke-width:0.75"
         x="269.25934"
         y="184.53227">14</tspan></text>
    <text
       xml:space="preserve"
       style="font-size:12px;fill:#000000;stroke-width:0.75"
       x="293.14798"
       y="184.53227"
       id="text517-2-6"><tspan
         sodipodi:role="line"
         id="tspan515-9-1"
         style="font-style:normal;font-variant:normal;font-weight:normal;font-stretch:normal;font-size:12px;font-family:Arial;-inkscape-font-specification:Arial;stroke-width:0.75"
         x="293.14798"
         y="184.53227">41</tspan></text>
    <text
       xml:space="preserve"
       style="font-size:12px;fill:#000000;stroke-width:0.75"
       x="269.68164"
       y="207.03226"
       id="text517-4-4"><tspan
         sodipodi:role="line"
         id="tspan515-3-93"
         style="font-style:normal;font-variant:normal;font-weight:normal;font-stretch:normal;font-size:12px;font-family:Arial;-inkscape-font-specification:Arial;stroke-width:0.75"
         x="269.68164"
         y="207.03226">25</tspan></text>
    <text
       xml:space="preserve"
       style="font-size:12px;fill:#000000;stroke-width:0.75"
       x="293.01614"
       y="207.03226"
       id="text517-2-75-7"><tspan
         sodipodi:role="line"
         id="tspan515-9-5-1"
         style="font-style:normal;font-variant:normal;font-weight:normal;font-stretch:normal;font-size:12px;font-family:Arial;-inkscape-font-specification:Arial;stroke-width:0.75"
         x="293.01614"
         y="207.03226">11</tspan></text>
  </g>
</svg>
