<?xml version="1.0" encoding="UTF-8" standalone="no"?>
<svg
   width="331.97223pt"
   height="117.20856pt"
   viewBox="0 0 331.97223 117.20856"
   version="1.1"
   id="svg117"
   sodipodi:docname="convolution-operation-stride-1.svg"
   inkscape:version="1.2 (dc2aedaf03, 2022-05-15)"
   xmlns:inkscape="http://www.inkscape.org/namespaces/inkscape"
   xmlns:sodipodi="http://sodipodi.sourceforge.net/DTD/sodipodi-0.dtd"
   xmlns="http://www.w3.org/2000/svg"
   xmlns:svg="http://www.w3.org/2000/svg">
  <defs
     id="defs121" />
  <sodipodi:namedview
     id="namedview119"
     pagecolor="#ffffff"
     bordercolor="#000000"
     borderopacity="0.25"
     inkscape:showpageshadow="2"
     inkscape:pageopacity="0.0"
     inkscape:pagecheckerboard="0"
     inkscape:deskcolor="#d1d1d1"
     inkscape:document-units="pt"
     showgrid="false"
     inkscape:zoom="2"
     inkscape:cx="203"
     inkscape:cy="144.75"
     inkscape:window-width="1920"
     inkscape:window-height="1010"
     inkscape:window-x="2873"
     inkscape:window-y="-6"
     inkscape:window-maximized="1"
     inkscape:current-layer="surface1" />
  <g
     id="surface1"
     transform="translate(-0.625,-8.046875)">
    <path
       style="fill:#ffffff;fill-opacity:1;fill-rule:nonzero;stroke:#000000;stroke-width:1.25;stroke-linecap:round;stroke-linejoin:round;stroke-miterlimit:10;stroke-opacity:1"
       d="m 287.51952,67.769525 h 22.5 v 22.5 h -22.5 z m 0,0"
       id="path2"
       inkscape:export-filename="path2.png"
       inkscape:export-xdpi="96"
       inkscape:export-ydpi="96" />
    <path
       style="fill:#ffffff;fill-opacity:1;fill-rule:nonzero;stroke:#000000;stroke-width:1.25;stroke-linecap:round;stroke-linejoin:round;stroke-miterlimit:10;stroke-opacity:1"
       d="m 265.01952,67.769525 h 22.5 v 22.5 h -22.5 z m 0,0"
       id="path8" />
    <path
       style="fill:#ffffff;fill-opacity:1;fill-rule:nonzero;stroke:#000000;stroke-width:1.25;stroke-linecap:round;stroke-linejoin:round;stroke-miterlimit:10;stroke-opacity:1"
       d="m 287.51952,45.269525 h 22.5 v 22.5 h -22.5 z m 0,0"
       id="path14" />
    <path
       style="fill:#b0d9ff;fill-opacity:1;fill-rule:nonzero;stroke:#000000;stroke-width:1.25;stroke-linecap:round;stroke-linejoin:round;stroke-miterlimit:10;stroke-opacity:1"
       d="m 265.01952,45.269525 h 22.5 v 22.5 h -22.5 z m 0,0"
       id="path20" />
    <path
       style="fill:#000000;fill-opacity:1;fill-rule:nonzero;stroke:none"
       d="m 136.30859,67.300781 0.50782,-1.5625 c 1.15625,0.40625 2.0039,0.757813 2.53906,1.054688 -0.14453,-1.3125 -0.21485,-2.226563 -0.21485,-2.734375 h 1.58204 c -0.0273,0.734375 -0.11329,1.640625 -0.25391,2.734375 0.75391,-0.375 1.62109,-0.726563 2.59766,-1.054688 l 0.50781,1.5625 c -0.9375,0.304688 -1.85156,0.503907 -2.73438,0.605469 0.44141,0.390625 1.07422,1.085938 1.89453,2.070312 l -1.32812,0.9375 c -0.42969,-0.570312 -0.93359,-1.355468 -1.50391,-2.363281 -0.54687,1.046875 -1.02343,1.832031 -1.42578,2.363281 l -1.30859,-0.9375 c 0.85937,-1.039062 1.46875,-1.726562 1.83594,-2.070312 -0.95313,-0.179688 -1.85157,-0.378906 -2.69532,-0.605469 z m 0,0"
       id="path26" />
    <path
       style="fill:#000000;fill-opacity:1;fill-rule:nonzero;stroke:none"
       d="m 241.73828,65.171875 h -10.64453 v -1.835937 h 10.64453 z m 0,4.882813 H 231.09375 V 68.21875 h 10.64453 z m 0,0"
       id="path28" />
    <path
       style="fill:#ffffff;fill-opacity:1;fill-rule:nonzero;stroke:#000000;stroke-width:1;stroke-linecap:round;stroke-linejoin:round;stroke-miterlimit:10;stroke-opacity:1"
       d="m 72,166.61875 h 18 v 18 H 72 Z m 0,0"
       transform="matrix(1.25,0,0,1.25,-66.25,-128.75)"
       id="path30" />
    <path
       style="fill:#b0d9ff;fill-opacity:1;fill-rule:nonzero;stroke:#000000;stroke-width:1;stroke-linecap:round;stroke-linejoin:round;stroke-miterlimit:10;stroke-opacity:1"
       d="m 72,130.61875 h 18 v 18 H 72 Z m 0,0"
       transform="matrix(1.25,0,0,1.25,-66.25,-128.75)"
       id="path34" />
    <path
       style="fill:#b0d9ff;fill-opacity:1;fill-rule:nonzero;stroke:#000000;stroke-width:1;stroke-linecap:round;stroke-linejoin:round;stroke-miterlimit:10;stroke-opacity:1"
       d="m 72,148.61875 h 18 v 18 H 72 Z m 0,0"
       transform="matrix(1.25,0,0,1.25,-66.25,-128.75)"
       id="path38" />
    <path
       style="fill:#ffffff;fill-opacity:1;fill-rule:nonzero;stroke:#000000;stroke-width:1;stroke-linecap:round;stroke-linejoin:round;stroke-miterlimit:10;stroke-opacity:1"
       d="m 54,166.61875 h 18 v 18 H 54 Z m 0,0"
       transform="matrix(1.25,0,0,1.25,-66.25,-128.75)"
       id="path42" />
    <path
       style="fill:#ffffff;fill-opacity:1;fill-rule:nonzero;stroke:#000000;stroke-width:1;stroke-linecap:round;stroke-linejoin:round;stroke-miterlimit:10;stroke-opacity:1"
       d="m 90,148.61875 h 18 v 18 H 90 Z m 0,0"
       transform="matrix(1.25,0,0,1.25,-66.25,-128.75)"
       id="path46" />
    <path
       style="fill:#b0d9ff;fill-opacity:1;fill-rule:nonzero;stroke:#000000;stroke-width:1;stroke-linecap:round;stroke-linejoin:round;stroke-miterlimit:10;stroke-opacity:1"
       d="m 54,148.61875 h 18 v 18 H 54 Z m 0,0"
       transform="matrix(1.25,0,0,1.25,-66.25,-128.75)"
       id="path50" />
    <path
       style="fill:#ffffff;fill-opacity:1;fill-rule:nonzero;stroke:#000000;stroke-width:1;stroke-linecap:round;stroke-linejoin:round;stroke-miterlimit:10;stroke-opacity:1"
       d="m 90,166.61875 h 18 v 18 H 90 Z m 0,0"
       transform="matrix(1.25,0,0,1.25,-66.25,-128.75)"
       id="path54" />
    <path
       style="fill:#ffffff;fill-opacity:1;fill-rule:nonzero;stroke:#000000;stroke-width:1;stroke-linecap:round;stroke-linejoin:round;stroke-miterlimit:10;stroke-opacity:1"
       d="m 90,130.61875 h 18 v 18 H 90 Z m 0,0"
       transform="matrix(1.25,0,0,1.25,-66.25,-128.75)"
       id="path58" />
    <path
       style="fill:#ffffff;fill-opacity:1;fill-rule:nonzero;stroke:#000000;stroke-width:1.25;stroke-linecap:round;stroke-linejoin:round;stroke-miterlimit:10;stroke-opacity:1"
       d="m 68.825,34.523 h 22.5 v 22.5 h -22.5 z m 0,0"
       id="path58-7" />
    <path
       style="fill:#ffffff;fill-opacity:1;fill-rule:nonzero;stroke:#000000;stroke-width:1.25;stroke-linecap:round;stroke-linejoin:round;stroke-miterlimit:10;stroke-opacity:1"
       d="m 68.825,57.211941 h 22.5 v 22.5 h -22.5 z m 0,0"
       id="path58-7-2" />
    <path
       style="fill:#ffffff;fill-opacity:1;fill-rule:nonzero;stroke:#000000;stroke-width:1.25;stroke-linecap:round;stroke-linejoin:round;stroke-miterlimit:10;stroke-opacity:1"
       d="m 68.825,79.523 h 22.500004 v 22.5 H 68.825 Z m 0,0"
       id="path58-7-2-0" />
    <path
       style="fill:#ffffff;fill-opacity:1;fill-rule:nonzero;stroke:#000000;stroke-width:1.25;stroke-linecap:round;stroke-linejoin:round;stroke-miterlimit:10;stroke-opacity:1"
       d="m 23.75,102.13043 h 22.5 v 22.50001 h -22.5 z m 0,0"
       id="path30-1" />
    <path
       style="fill:#ffffff;fill-opacity:1;fill-rule:nonzero;stroke:#000000;stroke-width:1.25;stroke-linecap:round;stroke-linejoin:round;stroke-miterlimit:10;stroke-opacity:1"
       d="m 1.25,102.13043 h 22.5 v 22.50001 H 1.25 Z m 0,0"
       id="path42-8" />
    <path
       style="fill:#ffffff;fill-opacity:1;fill-rule:nonzero;stroke:#000000;stroke-width:1.25;stroke-linecap:round;stroke-linejoin:round;stroke-miterlimit:10;stroke-opacity:1"
       d="m 46.25,102.13043 h 22.5 v 22.50001 h -22.5 z m 0,0"
       id="path54-3" />
    <path
       style="fill:#ffffff;fill-opacity:1;fill-rule:nonzero;stroke:#000000;stroke-width:1.25;stroke-linecap:round;stroke-linejoin:round;stroke-miterlimit:10;stroke-opacity:1"
       d="m 68.825,102.13 h 22.500004 v 22.5 H 68.825 Z m 0,0"
       id="path58-7-2-0-5" />
    <path
       style="fill:#b0d9ff;fill-opacity:1;fill-rule:nonzero;stroke:#000000;stroke-width:1;stroke-linecap:round;stroke-linejoin:round;stroke-miterlimit:10;stroke-opacity:1"
       d="m 54,130.61875 h 18 v 18 H 54 Z m 0,0"
       transform="matrix(1.25,0,0,1.25,-66.25,-128.75)"
       id="path62" />
    <path
       style="fill:#b0d9ff;fill-opacity:1;fill-rule:nonzero;stroke:#000000;stroke-width:1.25;stroke-linecap:round;stroke-linejoin:round;stroke-miterlimit:10;stroke-opacity:1"
       d="m 164.78906,67.769525 h 22.5 v 22.5 h -22.5 z m 0,0"
       id="path66" />
    <path
       style="fill:#000000;fill-opacity:1;fill-rule:nonzero;stroke:none"
       d="m 178.57422,81.1875 v 0.957031 h -5.33203 c 0,-0.234375 0.0391,-0.457031 0.11719,-0.683593 0.14453,-0.359376 0.36328,-0.722657 0.66406,-1.074219 0.30078,-0.351563 0.73047,-0.75 1.28906,-1.210938 0.87109,-0.726562 1.45703,-1.296875 1.75781,-1.71875 0.3125,-0.414062 0.46875,-0.808593 0.46875,-1.191406 0,-0.390625 -0.14453,-0.710937 -0.42968,-0.976563 -0.27344,-0.273437 -0.63282,-0.410156 -1.07422,-0.410156 -0.48047,0 -0.86719,0.148438 -1.15235,0.429688 -0.28515,0.289062 -0.42968,0.683594 -0.42968,1.191406 l -1.01563,-0.117188 c 0.0664,-0.75 0.32422,-1.328124 0.78125,-1.71875 0.45703,-0.398437 1.06641,-0.605468 1.83594,-0.605468 0.76953,0 1.375,0.214844 1.8164,0.644531 0.45704,0.429687 0.6836,0.957031 0.6836,1.582031 0,0.328125 -0.0664,0.644532 -0.19531,0.957032 -0.12891,0.3125 -0.35157,0.644531 -0.66407,0.996093 -0.30078,0.34375 -0.80078,0.8125 -1.5039,1.40625 -0.59766,0.5 -0.98438,0.835938 -1.15235,1.015625 -0.16797,0.1875 -0.30468,0.363282 -0.41015,0.527344 z m 0,0"
       id="path68" />
    <path
       style="fill:#b0d9ff;fill-opacity:1;fill-rule:nonzero;stroke:#000000;stroke-width:1.25;stroke-linecap:round;stroke-linejoin:round;stroke-miterlimit:10;stroke-opacity:1"
       d="m 187.28906,67.769525 h 22.5 v 22.5 h -22.5 z m 0,0"
       id="path70" />
    <path
       style="fill:#000000;fill-opacity:1;fill-rule:nonzero;stroke:none"
       d="m 195.87891,80.015625 0.99609,-0.136719 c 0.11719,0.5625 0.30469,0.96875 0.56641,1.210938 0.27343,0.25 0.61328,0.371094 1.01562,0.371094 0.45703,0 0.83984,-0.15625 1.15234,-0.46875 0.32422,-0.320313 0.48829,-0.726563 0.48829,-1.210938 0,-0.453125 -0.14844,-0.824219 -0.44922,-1.113281 -0.28516,-0.296875 -0.65625,-0.449219 -1.11328,-0.449219 -0.19532,0 -0.42969,0.03906 -0.70313,0.117188 l 0.11719,-0.878907 c 0.0664,0.01563 0.11719,0.01953 0.15625,0.01953 0.41797,0 0.79297,-0.105468 1.13281,-0.332031 0.33984,-0.21875 0.50781,-0.554687 0.50781,-1.015625 0,-0.359375 -0.125,-0.664062 -0.37109,-0.898437 -0.24609,-0.234375 -0.56641,-0.351563 -0.95703,-0.351563 -0.37891,0 -0.69531,0.128906 -0.95703,0.371094 -0.2461,0.234375 -0.41016,0.597656 -0.48828,1.074219 l -0.9961,-0.175781 c 0.12891,-0.664063 0.40235,-1.175782 0.82031,-1.542969 0.42969,-0.359375 0.96485,-0.546875 1.60157,-0.546875 0.4414,0 0.84765,0.09766 1.21093,0.292968 0.37891,0.1875 0.66407,0.441407 0.85938,0.761719 0.19531,0.328125 0.29297,0.675781 0.29297,1.035157 0,0.351562 -0.0977,0.675781 -0.29297,0.957031 -0.18359,0.289062 -0.45703,0.519531 -0.82031,0.683593 0.48047,0.109376 0.85156,0.332032 1.11328,0.683594 0.26172,0.34375 0.39062,0.773438 0.39062,1.289063 0,0.703125 -0.26172,1.304687 -0.78125,1.796875 -0.50781,0.484375 -1.15234,0.722656 -1.93359,0.722656 -0.70313,0 -1.28906,-0.203125 -1.75781,-0.625 -0.46875,-0.414062 -0.73438,-0.960938 -0.80078,-1.640624 z m 0,0"
       id="path72" />
    <path
       style="fill:#b0d9ff;fill-opacity:1;fill-rule:nonzero;stroke:#000000;stroke-width:1.25;stroke-linecap:round;stroke-linejoin:round;stroke-miterlimit:10;stroke-opacity:1"
       d="m 187.28906,45.269525 h 22.5 v 22.5 h -22.5 z m 0,0"
       id="path74" />
    <path
       style="fill:#000000;fill-opacity:1;fill-rule:nonzero;stroke:none"
       d="m 199.60937,59.644531 h -0.99609 v -6.308593 c -0.23437,0.234374 -0.54687,0.46875 -0.9375,0.703124 -0.39062,0.226563 -0.73437,0.386719 -1.03516,0.488282 v -0.957032 c 0.54688,-0.242187 1.02735,-0.550781 1.44532,-0.917968 0.41797,-0.375 0.71093,-0.742188 0.8789,-1.09375 h 0.64453 z m 0,0"
       id="path76" />
    <path
       style="fill:#b0d9ff;fill-opacity:1;fill-rule:nonzero;stroke:#000000;stroke-width:1.25;stroke-linecap:round;stroke-linejoin:round;stroke-miterlimit:10;stroke-opacity:1"
       d="m 164.78906,45.269525 h 22.5 v 22.5 h -22.5 z m 0,0"
       id="path78" />
    <path
       style="fill:#000000;fill-opacity:1;fill-rule:nonzero;stroke:none"
       d="m 173.37891,55.679688 c 0,-0.945313 0.0977,-1.71875 0.29297,-2.304688 0.19531,-0.585938 0.48046,-1.035156 0.85937,-1.347656 0.39063,-0.3125 0.87891,-0.46875 1.46484,-0.46875 0.44141,0 0.82813,0.09375 1.15235,0.273437 0.32422,0.171875 0.59375,0.421875 0.80078,0.742188 0.20703,0.328125 0.37109,0.722656 0.48828,1.191406 0.12891,0.46875 0.19531,1.109375 0.19531,1.914063 0,0.9375 -0.0977,1.699218 -0.29297,2.285156 -0.19531,0.578125 -0.48828,1.027344 -0.8789,1.347656 -0.37891,0.3125 -0.86719,0.46875 -1.46485,0.46875 -0.76953,0 -1.375,-0.277344 -1.8164,-0.839844 -0.53516,-0.664062 -0.80078,-1.746094 -0.80078,-3.261718 z m 1.01562,0 c 0,1.320312 0.14844,2.199218 0.44922,2.636718 0.3125,0.429688 0.69531,0.644532 1.15234,0.644532 0.45704,0 0.83985,-0.214844 1.15235,-0.644532 0.3125,-0.4375 0.46875,-1.316406 0.46875,-2.636718 0,-1.328126 -0.15625,-2.207032 -0.46875,-2.636719 -0.3125,-0.4375 -0.69531,-0.664063 -1.15235,-0.664063 -0.45703,0 -0.82031,0.191406 -1.09375,0.566406 -0.33984,0.5 -0.50781,1.40625 -0.50781,2.734376 z m 0,0"
       id="path80" />
    <path
       style="fill:#000000;fill-opacity:1;fill-rule:nonzero;stroke:none"
       d="m 271.17969,12.324219 c 0,-1.328125 0.35937,-2.367188 1.07422,-3.125 0.71484,-0.765625 1.64062,-1.152344 2.77343,-1.152344 0.74219,0 1.41407,0.1875 2.01172,0.546875 0.59766,0.351562 1.05469,0.851562 1.36719,1.484375 0.3125,0.640625 0.46875,1.359375 0.46875,2.148437 0,0.820313 -0.16406,1.558594 -0.48828,2.207032 -0.32422,0.640625 -0.79297,1.128906 -1.40625,1.464844 -0.59766,0.328124 -1.25,0.488281 -1.95313,0.488281 -0.7539,0 -1.43359,-0.179688 -2.03125,-0.546875 -0.59765,-0.363282 -1.05468,-0.863282 -1.36718,-1.503906 -0.30079,-0.632813 -0.44922,-1.308594 -0.44922,-2.011719 z m 1.09375,0.01953 c 0,0.976562 0.26172,1.75 0.78125,2.304688 0.51953,0.546874 1.17968,0.820312 1.97265,0.820312 0.79297,0 1.45313,-0.277344 1.97266,-0.839844 0.51953,-0.558594 0.78125,-1.355468 0.78125,-2.402344 0,-0.648437 -0.10938,-1.214843 -0.33203,-1.699218 -0.22266,-0.492188 -0.54688,-0.878906 -0.97656,-1.152344 -0.42969,-0.273438 -0.90625,-0.410156 -1.42579,-0.410156 -0.7539,0 -1.40625,0.261718 -1.95312,0.78125 -0.54688,0.523437 -0.82031,1.386718 -0.82031,2.597656 z m 0,0"
       id="path82" />
    <path
       style="fill:#000000;fill-opacity:1;fill-rule:nonzero;stroke:none"
       d="m 283.95312,16.25 v -0.859375 c -0.45703,0.664063 -1.07421,0.996094 -1.85546,0.996094 -0.33985,0 -0.65625,-0.07031 -0.95704,-0.195313 -0.30078,-0.140625 -0.52734,-0.3125 -0.68359,-0.507812 -0.14453,-0.195313 -0.24219,-0.433594 -0.29297,-0.722656 -0.0391,-0.195313 -0.0586,-0.507813 -0.0586,-0.9375 v -3.613282 h 0.97656 v 3.242188 c 0,0.523437 0.0273,0.871094 0.0781,1.035156 0.0508,0.265625 0.17578,0.46875 0.37109,0.625 0.20703,0.148438 0.46094,0.214844 0.76172,0.214844 0.30078,0 0.57812,-0.06641 0.83984,-0.214844 0.26172,-0.15625 0.44141,-0.359375 0.54688,-0.625 0.10547,-0.257812 0.15625,-0.644531 0.15625,-1.152344 v -3.125 h 0.99609 V 16.25 Z m 0,0"
       id="path84" />
    <path
       style="fill:#000000;fill-opacity:1;fill-rule:nonzero;stroke:none"
       d="m 288.54687,15.371094 0.13672,0.859375 c -0.28906,0.0625 -0.53515,0.09766 -0.74218,0.09766 -0.36719,0 -0.64454,-0.05859 -0.83985,-0.175781 -0.19531,-0.117188 -0.33984,-0.261719 -0.42969,-0.449219 -0.0781,-0.179687 -0.11718,-0.566406 -0.11718,-1.152344 V 11.19141 h -0.72266 v -0.78125 h 0.72266 V 8.964844 l 0.99609,-0.585938 v 2.03125 h 0.99609 v 0.78125 h -0.99609 v 3.398438 c 0,0.289062 0.0117,0.46875 0.0391,0.546875 0.0391,0.07813 0.0977,0.144531 0.17578,0.195312 0.0781,0.05469 0.1875,0.07813 0.33204,0.07813 0.11718,0 0.26562,-0.01172 0.44921,-0.03906 z m 0,0"
       id="path86" />
    <path
       style="fill:#000000;fill-opacity:1;fill-rule:nonzero;stroke:none"
       d="m 289.50391,18.476562 v -8.066406 h 0.89843 v 0.761719 c 0.20703,-0.296875 0.44141,-0.515625 0.70313,-0.664063 0.27344,-0.140624 0.60547,-0.214843 0.99609,-0.214843 0.49219,0 0.92969,0.132812 1.3086,0.390625 0.375,0.25 0.66406,0.605468 0.85937,1.074218 0.19531,0.46875 0.29297,0.976563 0.29297,1.523438 0,0.601562 -0.11328,1.140625 -0.33203,1.621094 -0.21094,0.484375 -0.51563,0.855468 -0.91797,1.113281 -0.40625,0.242187 -0.83594,0.371094 -1.28906,0.371094 -0.32813,0 -0.6211,-0.07422 -0.87891,-0.214844 -0.26172,-0.140625 -0.47656,-0.316406 -0.64453,-0.527344 v 2.832031 z m 0.89843,-5.117187 c 0,0.757813 0.14844,1.320313 0.44922,1.679687 0.3125,0.351563 0.6836,0.527344 1.11328,0.527344 0.42969,0 0.80078,-0.179687 1.11328,-0.546875 0.32422,-0.375 0.48829,-0.957031 0.48829,-1.738281 0,-0.742188 -0.15625,-1.292969 -0.46875,-1.660156 -0.30079,-0.375 -0.66407,-0.566406 -1.09375,-0.566406 -0.41797,0 -0.78907,0.203124 -1.11329,0.605468 -0.32812,0.390625 -0.48828,0.957032 -0.48828,1.699219 z m 0,0"
       id="path88" />
    <path
       style="fill:#000000;fill-opacity:1;fill-rule:nonzero;stroke:none"
       d="m 299.58594,16.25 v -0.859375 c -0.46094,0.664063 -1.07422,0.996094 -1.85547,0.996094 -0.34375,0 -0.66016,-0.07031 -0.95703,-0.195313 -0.30469,-0.140625 -0.52735,-0.3125 -0.6836,-0.507812 -0.14843,-0.195313 -0.24609,-0.433594 -0.29297,-0.722656 -0.0391,-0.195313 -0.0586,-0.507813 -0.0586,-0.9375 v -3.613282 h 0.97656 v 3.242188 c 0,0.523437 0.0234,0.871094 0.0781,1.035156 0.0469,0.265625 0.17578,0.46875 0.37109,0.625 0.20313,0.148438 0.45703,0.214844 0.76172,0.214844 0.29688,0 0.57422,-0.06641 0.83984,-0.214844 0.25782,-0.15625 0.4375,-0.359375 0.54688,-0.625 0.10156,-0.257812 0.15625,-0.644531 0.15625,-1.152344 v -3.125 h 0.99609 V 16.25 Z m 0,0"
       id="path90" />
    <path
       style="fill:#000000;fill-opacity:1;fill-rule:nonzero;stroke:none"
       d="m 304.17969,15.371094 0.13672,0.859375 c -0.28907,0.0625 -0.53907,0.09766 -0.74219,0.09766 -0.36719,0 -0.64453,-0.05859 -0.83985,-0.175781 -0.19531,-0.117188 -0.34375,-0.261719 -0.42968,-0.449219 -0.0781,-0.179687 -0.11719,-0.566406 -0.11719,-1.152344 V 11.19141 h -0.72266 v -0.78125 h 0.72266 V 8.964844 l 0.99609,-0.585938 v 2.03125 h 0.9961 v 0.78125 h -0.9961 v 3.398438 c 0,0.289062 0.008,0.46875 0.0391,0.546875 0.0391,0.07813 0.0977,0.144531 0.17578,0.195312 0.0781,0.05469 0.18359,0.07813 0.33203,0.07813 0.11719,0 0.26172,-0.01172 0.44922,-0.03906 z m 0,0"
       id="path92" />
    <path
       style="fill:#000000;fill-opacity:1;fill-rule:nonzero;stroke:none"
       d="M 171.1875,16.25 V 8.203125 h 1.07422 V 12.1875 l 4.00391,-3.984375 h 1.42578 l -3.35938,3.261719 3.51563,4.785156 h -1.40625 l -2.8711,-4.082031 -1.30859,1.289062 V 16.25 Z m 0,0"
       id="path94" />
    <path
       style="fill:#000000;fill-opacity:1;fill-rule:nonzero;stroke:none"
       d="m 182.59375,14.375 1.03516,0.117188 c -0.16797,0.601562 -0.47657,1.070312 -0.91797,1.40625 -0.42969,0.328124 -0.98438,0.488281 -1.66016,0.488281 -0.84766,0 -1.52344,-0.257813 -2.03125,-0.78125 -0.49609,-0.53125 -0.74219,-1.273438 -0.74219,-2.226563 0,-0.976562 0.25391,-1.730468 0.76172,-2.265625 0.50781,-0.546875 1.16406,-0.820312 1.97266,-0.820312 0.78125,0 1.41406,0.269531 1.89453,0.800781 0.49609,0.523438 0.74219,1.265625 0.74219,2.226562 0,0.07031 0,0.15625 0,0.273438 h -4.35547 c 0.0391,0.640625 0.22265,1.128906 0.54687,1.464844 0.32422,0.339844 0.73438,0.507812 1.23047,0.507812 0.36328,0 0.67188,-0.08984 0.91797,-0.273437 0.26172,-0.195313 0.46094,-0.496094 0.60547,-0.917969 z m -3.24219,-1.601562 h 3.26172 c -0.0391,-0.492188 -0.16406,-0.863282 -0.37109,-1.113282 -0.3125,-0.375 -0.72266,-0.566406 -1.23047,-0.566406 -0.45703,0 -0.83985,0.15625 -1.15235,0.46875 -0.30078,0.304688 -0.46875,0.703125 -0.50781,1.210938 z m 0,0"
       id="path96" />
    <path
       style="fill:#000000;fill-opacity:1;fill-rule:nonzero;stroke:none"
       d="m 184.84766,16.25 v -5.839844 h 0.89843 v 0.898438 c 0.22266,-0.414063 0.42969,-0.6875 0.625,-0.820313 0.19532,-0.128906 0.41016,-0.195312 0.64453,-0.195312 0.32422,0 0.66407,0.105469 1.01563,0.3125 l -0.35156,0.917969 c -0.23438,-0.140626 -0.47657,-0.214844 -0.72266,-0.214844 -0.20703,0 -0.40234,0.06641 -0.58594,0.195312 -0.16797,0.132813 -0.29297,0.3125 -0.37109,0.546875 -0.10547,0.351563 -0.15625,0.738281 -0.15625,1.152344 V 16.25 Z m 0,0"
       id="path98" />
    <path
       style="fill:#000000;fill-opacity:1;fill-rule:nonzero;stroke:none"
       d="m 188.61328,16.25 v -5.839844 h 0.89844 V 11.25 c 0.41797,-0.632812 1.03515,-0.957031 1.85547,-0.957031 0.35156,0 0.67187,0.06641 0.95703,0.195312 0.30078,0.117188 0.51953,0.285157 0.66406,0.488281 0.14453,0.195313 0.24609,0.4375 0.3125,0.722657 0.0391,0.183593 0.0586,0.503906 0.0586,0.957031 V 16.25 h -0.99609 v -3.554688 c 0,-0.398437 -0.0391,-0.703124 -0.11719,-0.898437 -0.0781,-0.195313 -0.21484,-0.351563 -0.41015,-0.46875 -0.19532,-0.125 -0.42188,-0.195313 -0.6836,-0.195313 -0.41797,0 -0.78125,0.136719 -1.09375,0.410157 -0.30078,0.261719 -0.44922,0.769531 -0.44922,1.523437 V 16.25 Z m 0,0"
       id="path100" />
    <path
       style="fill:#000000;fill-opacity:1;fill-rule:nonzero;stroke:none"
       d="m 198.85547,14.375 1.03515,0.117188 c -0.17187,0.601562 -0.47656,1.070312 -0.91796,1.40625 -0.42969,0.328124 -0.98438,0.488281 -1.66016,0.488281 -0.84766,0 -1.52344,-0.257813 -2.03125,-0.78125 -0.49609,-0.53125 -0.74219,-1.273438 -0.74219,-2.226563 0,-0.976562 0.25391,-1.730468 0.76172,-2.265625 0.50781,-0.546875 1.16406,-0.820312 1.97266,-0.820312 0.78125,0 1.41015,0.269531 1.89453,0.800781 0.49219,0.523438 0.74219,1.265625 0.74219,2.226562 0,0.07031 0,0.15625 0,0.273438 h -4.35547 c 0.0391,0.640625 0.21875,1.128906 0.54687,1.464844 0.32422,0.339844 0.73438,0.507812 1.23047,0.507812 0.36328,0 0.66797,-0.08984 0.91797,-0.273437 0.25781,-0.195313 0.46094,-0.496094 0.60547,-0.917969 z m -3.24219,-1.601562 h 3.26172 c -0.0391,-0.492188 -0.16406,-0.863282 -0.37109,-1.113282 -0.3125,-0.375 -0.72266,-0.566406 -1.23047,-0.566406 -0.45703,0 -0.83985,0.15625 -1.15235,0.46875 -0.30078,0.304688 -0.46875,0.703125 -0.50781,1.210938 z m 0,0"
       id="path102" />
    <path
       style="fill:#000000;fill-opacity:1;fill-rule:nonzero;stroke:none"
       d="M 201.10937,16.25 V 8.203125 h 0.97657 V 16.25 Z m 0,0"
       id="path104" />
    <path
       style="fill:#000000;fill-opacity:1;fill-rule:nonzero;stroke:none"
       d="M 24.792969,16.25 V 8.203125 h 1.054687 V 16.25 Z m 0,0"
       id="path106" />
    <path
       style="fill:#000000;fill-opacity:1;fill-rule:nonzero;stroke:none"
       d="m 27.605469,16.25 v -5.839844 h 0.898437 V 11.25 c 0.417969,-0.632812 1.035156,-0.957031 1.855469,-0.957031 0.351563,0 0.671875,0.06641 0.957031,0.195312 0.300782,0.117188 0.519532,0.285157 0.664063,0.488281 0.144531,0.195313 0.246093,0.4375 0.3125,0.722657 0.03906,0.183593 0.05859,0.503906 0.05859,0.957031 V 16.25 h -0.996093 v -3.554688 c 0,-0.398437 -0.03906,-0.703124 -0.117188,-0.898437 -0.07813,-0.195313 -0.214843,-0.351563 -0.410156,-0.46875 -0.195313,-0.125 -0.421875,-0.195313 -0.683594,-0.195313 -0.417969,0 -0.78125,0.136719 -1.09375,0.410157 C 28.75,11.804688 28.601562,12.3125 28.601562,13.066406 V 16.25 Z m 0,0"
       id="path108" />
    <path
       style="fill:#000000;fill-opacity:1;fill-rule:nonzero;stroke:none"
       d="m 33.859375,18.476562 v -8.066406 h 0.898437 v 0.761719 c 0.207032,-0.296875 0.441407,-0.515625 0.703126,-0.664063 0.273437,-0.140624 0.605468,-0.214843 0.996093,-0.214843 0.492188,0 0.929688,0.132812 1.308594,0.390625 0.375,0.25 0.664063,0.605468 0.859375,1.074218 0.195312,0.46875 0.292969,0.976563 0.292969,1.523438 0,0.601562 -0.113281,1.140625 -0.332031,1.621094 -0.210938,0.484375 -0.515626,0.855468 -0.917969,1.113281 -0.40625,0.242187 -0.835938,0.371094 -1.289063,0.371094 -0.328125,0 -0.621094,-0.07422 -0.878906,-0.214844 -0.261719,-0.140625 -0.476562,-0.316406 -0.644531,-0.527344 v 2.832031 z m 0.898437,-5.117187 c 0,0.757813 0.148438,1.320313 0.449219,1.679687 0.3125,0.351563 0.683594,0.527344 1.113281,0.527344 0.429688,0 0.800782,-0.179687 1.113282,-0.546875 0.324218,-0.375 0.488281,-0.957031 0.488281,-1.738281 0,-0.742188 -0.15625,-1.292969 -0.46875,-1.660156 -0.300781,-0.375 -0.664063,-0.566406 -1.09375,-0.566406 -0.417969,0 -0.789063,0.203124 -1.113281,0.605468 -0.328125,0.390625 -0.488282,0.957032 -0.488282,1.699219 z m 0,0"
       id="path110" />
    <path
       style="fill:#000000;fill-opacity:1;fill-rule:nonzero;stroke:none"
       d="m 43.941406,16.25 v -0.859375 c -0.460937,0.664063 -1.074218,0.996094 -1.855468,0.996094 -0.34375,0 -0.660157,-0.07031 -0.957032,-0.195313 -0.304687,-0.140625 -0.527344,-0.3125 -0.683594,-0.507812 -0.148437,-0.195313 -0.246093,-0.433594 -0.292968,-0.722656 -0.03906,-0.195313 -0.05859,-0.507813 -0.05859,-0.9375 v -3.613282 h 0.976562 v 3.242188 c 0,0.523437 0.02344,0.871094 0.07813,1.035156 0.04687,0.265625 0.175781,0.46875 0.371093,0.625 0.203125,0.148438 0.457031,0.214844 0.761719,0.214844 0.296875,0 0.574219,-0.06641 0.839844,-0.214844 0.257812,-0.15625 0.4375,-0.359375 0.546875,-0.625 0.101562,-0.257812 0.15625,-0.644531 0.15625,-1.152344 v -3.125 H 44.82032 V 16.25 Z m 0,0"
       id="path112" />
    <path
       style="fill:#000000;fill-opacity:1;fill-rule:nonzero;stroke:none"
       d="m 48.53125,15.371094 0.136719,0.859375 c -0.285157,0.0625 -0.535157,0.09766 -0.742188,0.09766 -0.363281,0 -0.644531,-0.05859 -0.839843,-0.175781 C 46.890625,16.03516 46.746094,15.890629 46.65625,15.703129 46.57812,15.523442 46.539062,15.136723 46.539062,14.550785 V 11.19141 h -0.722656 v -0.78125 h 0.722656 V 8.964844 l 0.996094,-0.585938 v 2.03125 h 0.996094 v 0.78125 h -0.996094 v 3.398438 c 0,0.289062 0.01172,0.46875 0.03906,0.546875 0.03906,0.07813 0.09766,0.144531 0.175781,0.195312 0.07813,0.05469 0.1875,0.07813 0.332031,0.07813 0.117188,0 0.265625,-0.01172 0.449219,-0.03906 z m 0,0"
       id="path114" />
    <text
       xml:space="preserve"
       style="font-size:9px;fill:#000000;stroke-width:0.75"
       x="81.329262"
       y="46.429352"
       id="text483"><tspan
         sodipodi:role="line"
         id="tspan481"
         style="stroke-width:0.75"
         x="81.329262"
         y="46.429352" /></text>
    <path
       style="fill:#000000;fill-opacity:1;fill-rule:nonzero;stroke:none"
       d="m 32.398438,86.90625 v -0.957031 h 5.214843 v 0.761719 c -0.507812,0.546874 -1.015625,1.28125 -1.523437,2.1875 -0.507813,0.898437 -0.898438,1.832031 -1.171875,2.792968 -0.195313,0.664063 -0.320313,1.402344 -0.371094,2.207032 H 33.53125 c 0.01172,-0.632813 0.136719,-1.394532 0.371094,-2.285157 0.234375,-0.898437 0.570312,-1.761719 1.015625,-2.597656 0.453125,-0.828125 0.929687,-1.53125 1.425781,-2.109375 z m 0,0"
       id="path32" />
    <path
       style="fill:#000000;fill-opacity:1;fill-rule:nonzero;stroke:none"
       d="m 81.428516,116.505 h -0.996093 v -6.30859 c -0.234375,0.23437 -0.546875,0.46875 -0.9375,0.70312 -0.390625,0.22656 -0.738282,0.38672 -1.035157,0.48828 v -0.95703 c 0.546875,-0.24219 1.027344,-0.55078 1.445313,-0.91797 0.414062,-0.375 0.707031,-0.74219 0.878906,-1.09375 h 0.644531 z m 0,0"
       id="path36" />
    <path
       style="fill:#000000;fill-opacity:1;fill-rule:nonzero;stroke:none"
       d="m 80.647265,93.878468 v -1.933594 h -3.496094 v -0.898438 l 3.671876,-5.214844 h 0.820312 v 5.214844 h 1.09375 v 0.898438 h -1.09375 v 1.933594 z m 0,-2.832032 v -3.632812 l -2.519531,3.632812 z m 0,0"
       id="path40" />
    <path
       style="fill:#000000;fill-opacity:1;fill-rule:nonzero;stroke:none"
       d="m 14.976562,87.824219 -0.996093,0.07813 c -0.07813,-0.390625 -0.203125,-0.671875 -0.371094,-0.859375 -0.261719,-0.273438 -0.585937,-0.410157 -0.976563,-0.410157 -0.328124,0 -0.605468,0.08984 -0.839843,0.253907 -0.3125,0.234375 -0.5625,0.566406 -0.742188,0.996093 -0.171875,0.429688 -0.261719,1.050782 -0.273437,1.855469 0.234375,-0.351562 0.519531,-0.609375 0.859375,-0.78125 0.351562,-0.179687 0.714843,-0.273437 1.09375,-0.273437 0.664062,0 1.222656,0.246094 1.679687,0.722656 0.46875,0.484375 0.703125,1.109375 0.703125,1.875 0,0.507812 -0.113281,0.988281 -0.332031,1.425781 -0.222656,0.429688 -0.523438,0.761719 -0.898438,0.996094 -0.378906,0.21875 -0.808593,0.332031 -1.289062,0.332031 -0.820312,0 -1.492188,-0.296875 -2.011719,-0.898437 -0.523437,-0.609375 -0.78125,-1.609375 -0.78125,-3.007813 0,-1.546875 0.285157,-2.679687 0.859375,-3.398437 0.492188,-0.609375 1.171875,-0.917969 2.03125,-0.917969 0.625,0 1.136719,0.1875 1.542969,0.546875 0.402344,0.351563 0.648437,0.839844 0.742187,1.464844 z m -4.042968,3.457031 c 0,0.351562 0.07031,0.683594 0.214844,0.996094 0.140624,0.304687 0.34375,0.539062 0.605468,0.703125 0.257813,0.15625 0.53125,0.234375 0.820313,0.234375 0.414062,0 0.773437,-0.160156 1.074219,-0.488282 0.296874,-0.335937 0.449218,-0.800781 0.449218,-1.386718 0,-0.554688 -0.152344,-0.996094 -0.449218,-1.308594 -0.289063,-0.320312 -0.660157,-0.488281 -1.113282,-0.488281 -0.445312,0 -0.820312,0.167969 -1.132812,0.488281 -0.3125,0.3125 -0.46875,0.734375 -0.46875,1.25 z m 0,0"
       id="path44" />
    <path
       style="fill:#000000;fill-opacity:1;fill-rule:nonzero;stroke:none"
       d="M 54.839844,69.289062 55.875,69.191406 c 0.07813,0.507813 0.253906,0.894532 0.527344,1.152344 0.285156,0.25 0.625,0.371094 1.015625,0.371094 0.480469,0 0.882812,-0.175782 1.210937,-0.527344 0.335938,-0.359375 0.507813,-0.839844 0.507813,-1.425781 0,-0.570313 -0.164063,-1.019531 -0.488281,-1.347657 -0.3125,-0.320312 -0.722657,-0.488281 -1.230469,-0.488281 -0.328125,0 -0.621094,0.07813 -0.878907,0.234375 -0.25,0.148438 -0.449218,0.328125 -0.605468,0.546875 l -0.917969,-0.117187 0.78125,-4.140625 h 4.003906 v 0.957031 h -3.222656 l -0.429687,2.148438 c 0.480468,-0.320313 0.988281,-0.488282 1.523437,-0.488282 0.703125,0 1.292969,0.246094 1.777344,0.722656 0.480469,0.484376 0.722656,1.109376 0.722656,1.875 0,0.734376 -0.210937,1.363282 -0.625,1.894532 -0.523437,0.65625 -1.230469,0.976562 -2.128906,0.976562 -0.730469,0 -1.328125,-0.199218 -1.796875,-0.605468 -0.457032,-0.414063 -0.71875,-0.960938 -0.78125,-1.640626 z m 0,0"
       id="path48" />
    <path
       style="fill:#000000;fill-opacity:1;fill-rule:nonzero;stroke:none"
       d="m 9.839844,69.269531 0.996094,-0.136719 c 0.117187,0.5625 0.304687,0.96875 0.566406,1.210938 0.273437,0.25 0.609375,0.371094 1.015625,0.371094 0.453125,0 0.839843,-0.15625 1.152343,-0.46875 0.324219,-0.320313 0.488282,-0.726563 0.488282,-1.210938 0,-0.453125 -0.152344,-0.824218 -0.449219,-1.113281 -0.289063,-0.296875 -0.660156,-0.449219 -1.113281,-0.449219 -0.195313,0 -0.429688,0.03906 -0.703125,0.117188 l 0.117187,-0.878906 c 0.0625,0.01562 0.117188,0.01953 0.15625,0.01953 0.414063,0 0.792969,-0.105469 1.132813,-0.332031 0.335937,-0.21875 0.507812,-0.554688 0.507812,-1.015626 0,-0.359374 -0.125,-0.664062 -0.371093,-0.898437 -0.25,-0.234375 -0.566407,-0.351563 -0.957032,-0.351563 -0.378906,0 -0.699218,0.128907 -0.957031,0.371094 -0.25,0.234375 -0.410156,0.597656 -0.488281,1.074219 L 9.9375,65.402344 c 0.128906,-0.664063 0.402344,-1.175782 0.820312,-1.542969 C 11.1875,63.5 11.71875,63.3125 12.359375,63.3125 c 0.441406,0 0.84375,0.09766 1.210937,0.292969 0.375,0.1875 0.664063,0.441406 0.859376,0.761719 0.195312,0.328124 0.292968,0.675781 0.292968,1.035156 0,0.351562 -0.09766,0.675781 -0.292968,0.957031 -0.183594,0.289063 -0.457032,0.519531 -0.820313,0.683594 0.480469,0.109375 0.851563,0.332031 1.113281,0.683593 0.257813,0.34375 0.390625,0.773438 0.390625,1.289063 0,0.703125 -0.261719,1.304687 -0.78125,1.796875 -0.507812,0.484375 -1.152343,0.722656 -1.933593,0.722656 -0.703126,0 -1.289063,-0.203125 -1.757813,-0.625 -0.46875,-0.414062 -0.738281,-0.960937 -0.800781,-1.640625 z m 0,0"
       id="path52" />
    <path
       style="fill:#000000;fill-opacity:1;fill-rule:nonzero;stroke:none"
       d="m 56.363281,89.523438 c -0.417969,-0.140626 -0.722656,-0.351563 -0.917969,-0.625 -0.195312,-0.28125 -0.292968,-0.625 -0.292968,-1.015626 0,-0.585937 0.207031,-1.074218 0.625,-1.464843 0.429687,-0.398438 0.988281,-0.605469 1.679687,-0.605469 0.703125,0 1.269531,0.210938 1.699219,0.625 0.429688,0.40625 0.644531,0.898438 0.644531,1.484375 0,0.367187 -0.09766,0.695313 -0.292969,0.976563 -0.195312,0.273437 -0.496093,0.484374 -0.898437,0.625 0.492187,0.171874 0.871094,0.441406 1.132813,0.800781 0.257812,0.351562 0.390624,0.777343 0.390624,1.269531 0,0.695312 -0.25,1.269531 -0.742187,1.738281 -0.484375,0.46875 -1.121094,0.703125 -1.914063,0.703125 -0.796874,0 -1.441406,-0.234375 -1.933593,-0.703125 -0.484375,-0.46875 -0.722657,-1.054687 -0.722657,-1.757812 0,-0.515625 0.128907,-0.957031 0.390626,-1.308594 0.273437,-0.359375 0.65625,-0.609375 1.152343,-0.742187 z m -0.195312,-1.660157 c 0,0.382813 0.117187,0.695313 0.351562,0.9375 0.246094,0.234375 0.566407,0.351563 0.957031,0.351563 0.390626,0 0.703126,-0.117188 0.9375,-0.351563 0.246094,-0.242187 0.371094,-0.546875 0.371094,-0.898437 0,-0.351563 -0.125,-0.648438 -0.371094,-0.898438 -0.25,-0.242187 -0.5625,-0.371094 -0.9375,-0.371094 -0.378906,0 -0.691406,0.128907 -0.9375,0.371094 -0.25,0.234375 -0.371093,0.523438 -0.371093,0.859375 z m -0.332031,3.710938 c 0,0.289062 0.0625,0.5625 0.195312,0.820312 0.140625,0.265625 0.34375,0.464844 0.605469,0.605469 0.257812,0.148438 0.546875,0.214844 0.859375,0.214844 0.46875,0 0.851562,-0.144532 1.152344,-0.449219 0.3125,-0.296875 0.46875,-0.683594 0.46875,-1.152344 0,-0.476562 -0.15625,-0.878906 -0.46875,-1.191406 -0.3125,-0.3125 -0.710938,-0.46875 -1.191407,-0.46875 -0.46875,0 -0.859375,0.15625 -1.171875,0.46875 -0.300781,0.3125 -0.449218,0.699219 -0.449218,1.152344 z m 0,0"
       id="path56" />
    <path
       style="fill:#000000;fill-opacity:1;fill-rule:nonzero;stroke:none"
       d="m 60.035156,47.941406 v 0.957032 h -5.332031 c 0,-0.234376 0.03906,-0.457032 0.117187,-0.683594 0.140626,-0.359375 0.363282,-0.722656 0.664063,-1.074219 0.296875,-0.351563 0.726563,-0.75 1.289063,-1.210937 0.871093,-0.726563 1.457031,-1.296876 1.757812,-1.71875 C 58.84375,43.796875 59,43.402344 59,43.019531 59,42.628906 58.855469,42.308594 58.570312,42.042969 58.296875,41.769531 57.9375,41.632812 57.496094,41.632812 c -0.484375,0 -0.867188,0.148438 -1.152344,0.429688 -0.289062,0.289062 -0.429688,0.683594 -0.429688,1.191406 l -1.015624,-0.117187 c 0.0625,-0.75 0.324218,-1.328125 0.78125,-1.71875 0.453124,-0.398438 1.066406,-0.605469 1.835937,-0.605469 0.765625,0 1.371094,0.214844 1.816406,0.644531 0.453125,0.429688 0.683594,0.957031 0.683594,1.582031 0,0.328126 -0.06641,0.644532 -0.195313,0.957032 -0.132812,0.3125 -0.351562,0.644531 -0.664062,0.996094 -0.300781,0.34375 -0.800781,0.8125 -1.503906,1.40625 -0.601563,0.5 -0.984375,0.835937 -1.152344,1.015624 -0.171875,0.1875 -0.308594,0.363282 -0.410156,0.527344 z m 0,0"
       id="path60" />
    <path
       style="fill:#000000;fill-opacity:1;fill-rule:nonzero;stroke:none"
       d="m 37.671875,115.61676 v 0.95703 h -5.332031 c 0,-0.23437 0.03906,-0.45703 0.117187,-0.68359 0.140626,-0.35938 0.363282,-0.72266 0.664063,-1.07422 0.296875,-0.35156 0.726563,-0.75 1.289063,-1.21094 0.871093,-0.72656 1.457031,-1.29687 1.757812,-1.71875 0.3125,-0.41406 0.46875,-0.80859 0.46875,-1.1914 0,-0.39063 -0.144531,-0.71094 -0.429688,-0.97657 -0.273437,-0.27343 -0.632812,-0.41015 -1.074218,-0.41015 -0.484375,0 -0.867188,0.14844 -1.152344,0.42969 -0.289062,0.28906 -0.429688,0.68359 -0.429688,1.1914 l -1.015624,-0.11719 c 0.0625,-0.75 0.324218,-1.32812 0.78125,-1.71875 0.453124,-0.39843 1.066406,-0.60546 1.835937,-0.60546 0.765625,0 1.371094,0.21484 1.816406,0.64453 0.453125,0.42968 0.683594,0.95703 0.683594,1.58203 0,0.32812 -0.06641,0.64453 -0.195313,0.95703 -0.132812,0.3125 -0.351562,0.64453 -0.664062,0.99609 -0.300781,0.34375 -0.800781,0.8125 -1.503906,1.40625 -0.601563,0.5 -0.984375,0.83594 -1.152344,1.01563 -0.171875,0.1875 -0.308594,0.36328 -0.410156,0.52734 z m 0,0"
       id="path60-7" />
    <path
       style="fill:#000000;fill-opacity:1;fill-rule:nonzero;stroke:none"
       d="m 60.142577,115.61676 v 0.95703 h -5.332031 c 0,-0.23437 0.03906,-0.45703 0.117187,-0.68359 0.140626,-0.35938 0.363282,-0.72266 0.664063,-1.07422 0.296875,-0.35156 0.726563,-0.75 1.289063,-1.21094 0.871093,-0.72656 1.457031,-1.29687 1.757812,-1.71875 0.3125,-0.41406 0.46875,-0.80859 0.46875,-1.1914 0,-0.39063 -0.144531,-0.71094 -0.429688,-0.97657 -0.273437,-0.27343 -0.632812,-0.41015 -1.074218,-0.41015 -0.484375,0 -0.867188,0.14844 -1.152344,0.42969 -0.289062,0.28906 -0.429688,0.68359 -0.429688,1.1914 l -1.015624,-0.11719 c 0.0625,-0.75 0.324218,-1.32812 0.78125,-1.71875 0.453124,-0.39843 1.066406,-0.60546 1.835937,-0.60546 0.765625,0 1.371094,0.21484 1.816406,0.64453 0.453125,0.42968 0.683594,0.95703 0.683594,1.58203 0,0.32812 -0.06641,0.64453 -0.195313,0.95703 -0.132812,0.3125 -0.351562,0.64453 -0.664062,0.99609 -0.300781,0.34375 -0.800781,0.8125 -1.503906,1.40625 -0.601563,0.5 -0.984375,0.83594 -1.152344,1.01563 -0.171875,0.1875 -0.308594,0.36328 -0.410156,0.52734 z m 0,0"
       id="path60-7-1" />
    <path
       style="fill:#000000;fill-opacity:1;fill-rule:nonzero;stroke:none"
       d="m 37.466796,70.460937 v 0.957032 h -5.332031 c 0,-0.234376 0.03906,-0.457032 0.117187,-0.683594 0.140626,-0.359375 0.363282,-0.722656 0.664063,-1.074219 0.296875,-0.351563 0.726563,-0.75 1.289063,-1.210937 0.871093,-0.726563 1.457031,-1.296876 1.757812,-1.71875 0.3125,-0.414063 0.46875,-0.808594 0.46875,-1.191407 0,-0.390625 -0.144531,-0.710937 -0.429688,-0.976562 -0.273437,-0.273438 -0.632812,-0.410157 -1.074218,-0.410157 -0.484375,0 -0.867188,0.148438 -1.152344,0.429688 -0.289062,0.289062 -0.429688,0.683594 -0.429688,1.191406 L 32.330078,65.65625 c 0.0625,-0.75 0.324218,-1.328125 0.78125,-1.71875 0.453124,-0.398438 1.066406,-0.605469 1.835937,-0.605469 0.765625,0 1.371094,0.214844 1.816406,0.644531 0.453125,0.429688 0.683594,0.957031 0.683594,1.582031 0,0.328126 -0.06641,0.644532 -0.195313,0.957032 -0.132812,0.3125 -0.351562,0.644531 -0.664062,0.996094 -0.300781,0.34375 -0.800781,0.8125 -1.503906,1.40625 -0.601563,0.5 -0.984375,0.835937 -1.152344,1.015624 -0.171875,0.1875 -0.308594,0.363282 -0.410156,0.527344 z m 0,0"
       id="path60-7-1-9" />
    <path
       style="fill:#000000;fill-opacity:1;fill-rule:nonzero;stroke:none"
       d="m 77.336719,41.837455 v -0.95704 h 5.214843 v 0.76172 c -0.507812,0.54688 -1.015625,1.28126 -1.523437,2.18751 -0.507813,0.89843 -0.898438,1.83203 -1.171875,2.79296 -0.195313,0.66407 -0.320313,1.40235 -0.371094,2.20704 h -1.015625 c 0.01172,-0.63282 0.136719,-1.39454 0.371094,-2.28516 0.234375,-0.89844 0.570312,-1.76172 1.015625,-2.59766 0.453125,-0.82812 0.929687,-1.53125 1.425781,-2.10937 z m 0,0"
       id="path32-1" />
    <path
       style="fill:#000000;fill-opacity:1;fill-rule:nonzero;stroke:none"
       d="m 14.976562,110.43122 -0.996093,0.0781 c -0.07813,-0.39063 -0.203125,-0.67188 -0.371094,-0.85938 -0.261719,-0.27344 -0.585937,-0.41016 -0.976563,-0.41016 -0.328124,0 -0.605468,0.0898 -0.839843,0.25391 -0.3125,0.23437 -0.5625,0.56641 -0.742188,0.9961 -0.171875,0.42968 -0.261719,1.05078 -0.273437,1.85547 0.234375,-0.35157 0.519531,-0.60938 0.859375,-0.78125 0.351562,-0.17969 0.714843,-0.27344 1.09375,-0.27344 0.664062,0 1.222656,0.24609 1.679687,0.72265 0.46875,0.48438 0.703125,1.10938 0.703125,1.875 0,0.50782 -0.113281,0.98829 -0.332031,1.42579 -0.222656,0.42968 -0.523438,0.76171 -0.898438,0.99609 -0.378906,0.21875 -0.808593,0.33203 -1.289062,0.33203 -0.820312,0 -1.492188,-0.29687 -2.011719,-0.89844 -0.523437,-0.60937 -0.78125,-1.60937 -0.78125,-3.00781 0,-1.54687 0.285157,-2.67969 0.859375,-3.39844 0.492188,-0.60938 1.171875,-0.91797 2.03125,-0.91797 0.625,0 1.136719,0.1875 1.542969,0.54688 0.402344,0.35156 0.648437,0.83984 0.742187,1.46484 z m -4.042968,3.45703 c 0,0.35156 0.07031,0.68359 0.214844,0.99609 0.140624,0.30469 0.34375,0.53906 0.605468,0.70313 0.257813,0.15625 0.53125,0.23437 0.820313,0.23437 0.414062,0 0.773437,-0.16015 1.074219,-0.48828 0.296874,-0.33594 0.449218,-0.80078 0.449218,-1.38672 0,-0.55469 -0.152344,-0.99609 -0.449218,-1.30859 -0.289063,-0.32031 -0.660157,-0.48828 -1.113282,-0.48828 -0.445312,0 -0.820312,0.16797 -1.132812,0.48828 -0.3125,0.3125 -0.46875,0.73437 -0.46875,1.25 z m 0,0"
       id="path44-4" />
    <path
       style="fill:#000000;fill-opacity:1;fill-rule:nonzero;stroke:none"
       d="m 78.830859,67.143586 c -0.417969,-0.14063 -0.722656,-0.35157 -0.917969,-0.625 -0.195312,-0.28125 -0.292968,-0.625 -0.292968,-1.01563 0,-0.58594 0.207031,-1.07422 0.625,-1.46485 0.429687,-0.39843 0.988281,-0.60546 1.679687,-0.60546 0.703125,0 1.269531,0.21093 1.699219,0.625 0.429688,0.40625 0.644531,0.89843 0.644531,1.48437 0,0.36719 -0.09766,0.69532 -0.292969,0.97657 -0.195312,0.27343 -0.496093,0.48437 -0.898437,0.625 0.492187,0.17187 0.871094,0.4414 1.132813,0.80078 0.257812,0.35156 0.390624,0.77734 0.390624,1.26953 0,0.69531 -0.25,1.26953 -0.742187,1.73828 -0.484375,0.46875 -1.121094,0.70312 -1.914063,0.70312 -0.796874,0 -1.441406,-0.23437 -1.933593,-0.70312 -0.484375,-0.46875 -0.722657,-1.05469 -0.722657,-1.75781 0,-0.51563 0.128907,-0.95703 0.390626,-1.3086 0.273437,-0.35937 0.65625,-0.60937 1.152343,-0.74218 z m -0.195312,-1.66016 c 0,0.38281 0.117187,0.69531 0.351562,0.9375 0.246094,0.23437 0.566407,0.35156 0.957031,0.35156 0.390626,0 0.703126,-0.11719 0.9375,-0.35156 0.246094,-0.24219 0.371094,-0.54688 0.371094,-0.89844 0,-0.35156 -0.125,-0.64844 -0.371094,-0.89844 -0.25,-0.24219 -0.5625,-0.37109 -0.9375,-0.37109 -0.378906,0 -0.691406,0.1289 -0.9375,0.37109 -0.25,0.23438 -0.371093,0.52344 -0.371093,0.85938 z m -0.332031,3.71094 c 0,0.28906 0.0625,0.5625 0.195312,0.82031 0.140625,0.26562 0.34375,0.46484 0.605469,0.60547 0.257812,0.14844 0.546875,0.21484 0.859375,0.21484 0.46875,0 0.851562,-0.14453 1.152344,-0.44922 0.3125,-0.29687 0.46875,-0.68359 0.46875,-1.15234 0,-0.47656 -0.15625,-0.87891 -0.46875,-1.19141 -0.3125,-0.3125 -0.710938,-0.46875 -1.191407,-0.46875 -0.46875,0 -0.859375,0.15625 -1.171875,0.46875 -0.300781,0.3125 -0.449218,0.69922 -0.449218,1.15235 z m 0,0"
       id="path56-8" />
    <path
       style="fill:#000000;fill-opacity:1;fill-rule:nonzero;stroke:none"
       d="m 37.251952,47.941409 v 0.95703 h -5.332031 c 0,-0.23438 0.03906,-0.45703 0.117187,-0.6836 0.140626,-0.35937 0.363282,-0.72265 0.664063,-1.07422 0.296875,-0.35156 0.726563,-0.75 1.289063,-1.21093 0.871093,-0.72657 1.457031,-1.29688 1.757812,-1.71875 0.3125,-0.41407 0.46875,-0.8086 0.46875,-1.19141 0,-0.39063 -0.144531,-0.71094 -0.429688,-0.97656 -0.273437,-0.27344 -0.632812,-0.41016 -1.074218,-0.41016 -0.484375,0 -0.867188,0.14844 -1.152344,0.42969 -0.289062,0.28906 -0.429688,0.68359 -0.429688,1.19141 l -1.015624,-0.11719 c 0.0625,-0.75 0.324218,-1.32813 0.78125,-1.71875 0.453124,-0.39844 1.066406,-0.60547 1.835937,-0.60547 0.765625,0 1.371094,0.21484 1.816406,0.64453 0.453125,0.42969 0.683594,0.95703 0.683594,1.58203 0,0.32813 -0.06641,0.64453 -0.195313,0.95703 -0.132812,0.3125 -0.351562,0.64453 -0.664062,0.9961 -0.300781,0.34375 -0.800781,0.8125 -1.503906,1.40625 -0.601563,0.5 -0.984375,0.83593 -1.152344,1.01562 -0.171875,0.1875 -0.308594,0.36328 -0.410156,0.52735 z m 0,0"
       id="path60-7-1-9-2" />
    <path
       style="fill:#000000;fill-opacity:1;fill-rule:nonzero;stroke:none"
       d="m 9.839844,44.933594 c 0,-0.945313 0.097656,-1.71875 0.292968,-2.304688 0.195313,-0.585937 0.480469,-1.035156 0.859376,-1.347656 0.390624,-0.3125 0.878906,-0.46875 1.464843,-0.46875 0.441407,0 0.824219,0.09375 1.152344,0.273438 0.324219,0.171874 0.589844,0.421874 0.800781,0.742187 0.207032,0.328125 0.371094,0.722656 0.488282,1.191406 0.128906,0.46875 0.195312,1.109375 0.195312,1.914063 0,0.9375 -0.09766,1.699218 -0.292969,2.285156 -0.195312,0.578125 -0.488281,1.027344 -0.878906,1.347656 -0.378906,0.3125 -0.867187,0.46875 -1.464844,0.46875 -0.769531,0 -1.375,-0.277344 -1.816406,-0.839844 C 10.105469,47.53125 9.839844,46.449219 9.839844,44.933594 Z m 1.015625,0 c 0,1.320312 0.148437,2.199218 0.449219,2.636718 C 11.617188,48 12,48.214844 12.457031,48.214844 c 0.453125,0 0.839844,-0.214844 1.152344,-0.644532 0.3125,-0.4375 0.46875,-1.316406 0.46875,-2.636718 0,-1.328125 -0.15625,-2.207032 -0.46875,-2.636719 -0.3125,-0.4375 -0.699219,-0.664063 -1.152344,-0.664063 -0.457031,0 -0.820312,0.191407 -1.09375,0.566407 -0.339843,0.5 -0.507812,1.40625 -0.507812,2.734375 z m 0,0"
       id="path64" />
    <text
       xml:space="preserve"
       style="font-size:12px;fill:#000000;stroke-width:0.75"
       x="269.23242"
       y="60.832024"
       id="text517"><tspan
         sodipodi:role="line"
         id="tspan515"
         style="font-style:normal;font-variant:normal;font-weight:normal;font-stretch:normal;font-size:12px;font-family:Arial;-inkscape-font-specification:Arial;stroke-width:0.75"
         x="269.23242"
         y="60.832024">14</tspan></text>
    <text
       xml:space="preserve"
       style="font-size:12px;fill:#000000;stroke-width:0.75"
       x="293.01608"
       y="60.832024"
       id="text517-2"><tspan
         sodipodi:role="line"
         id="tspan515-9"
         style="font-style:normal;font-variant:normal;font-weight:normal;font-stretch:normal;font-size:12px;font-family:Arial;-inkscape-font-specification:Arial;stroke-width:0.75"
         x="293.01608"
         y="60.832024">21</tspan></text>
    <path
       style="fill:#ffffff;fill-opacity:1;fill-rule:nonzero;stroke:#000000;stroke-width:1.25;stroke-linecap:round;stroke-linejoin:round;stroke-miterlimit:10;stroke-opacity:1"
       d="m 309.47175,67.77 h 22.5 v 22.500001 h -22.5 z m 0,0"
       id="path2-3" />
    <path
       style="fill:#ffffff;fill-opacity:1;fill-rule:nonzero;stroke:#000000;stroke-width:1.25;stroke-linecap:round;stroke-linejoin:round;stroke-miterlimit:10;stroke-opacity:1"
       d="m 309.47175,45.27 h 22.5 v 22.5 h -22.5 z m 0,0"
       id="path14-2" />
    <text
       xml:space="preserve"
       style="font-size:12px;fill:#000000;stroke-width:0.75"
       x="315.0733"
       y="60.832024"
       id="text517-2-7"><tspan
         sodipodi:role="line"
         style="font-style:normal;font-variant:normal;font-weight:normal;font-stretch:normal;font-size:12px;font-family:Arial;-inkscape-font-specification:Arial;stroke-width:0.75"
         x="315.0733"
         y="60.832024"
         id="tspan753">41</tspan></text>
    <text
       xml:space="preserve"
       style="font-size:12px;fill:#000000;stroke-width:0.75"
       x="269.58398"
       y="83.332024"
       id="text517-4"><tspan
         sodipodi:role="line"
         id="tspan515-3"
         style="font-style:normal;font-variant:normal;font-weight:normal;font-stretch:normal;font-size:12px;font-family:Arial;-inkscape-font-specification:Arial;stroke-width:0.75"
         x="269.58398"
         y="83.332024">35</tspan></text>
    <text
       xml:space="preserve"
       style="font-size:12px;fill:#000000;stroke-width:0.75"
       x="292.29199"
       y="83.332024"
       id="text517-2-75"><tspan
         sodipodi:role="line"
         id="tspan515-9-5"
         style="font-style:normal;font-variant:normal;font-weight:normal;font-stretch:normal;font-size:12px;font-family:Arial;-inkscape-font-specification:Arial;stroke-width:0.75"
         x="292.29199"
         y="83.332024">43</tspan></text>
    <text
       xml:space="preserve"
       style="font-size:12px;fill:#000000;stroke-width:0.75"
       x="314.07135"
       y="83.332024"
       id="text517-2-7-9"><tspan
         sodipodi:role="line"
         id="tspan515-9-8-0"
         style="font-style:normal;font-variant:normal;font-weight:normal;font-stretch:normal;font-size:12px;font-family:Arial;-inkscape-font-specification:Arial;stroke-width:0.75"
         x="314.07135"
         y="83.332024">36</tspan></text>
    <path
       style="fill:#ffffff;fill-opacity:1;fill-rule:nonzero;stroke:#000000;stroke-width:1.25;stroke-linecap:round;stroke-linejoin:round;stroke-miterlimit:10;stroke-opacity:1"
       d="m 287.52,90.342 h 22.5 v 22.5 h -22.5 z m 0,0"
       id="path2-9" />
    <path
       style="fill:#ffffff;fill-opacity:1;fill-rule:nonzero;stroke:#000000;stroke-width:1.25;stroke-linecap:round;stroke-linejoin:round;stroke-miterlimit:10;stroke-opacity:1"
       d="m 265.02,90.342 h 22.5 v 22.5 h -22.5 z m 0,0"
       id="path8-0" />
    <path
       style="fill:#ffffff;fill-opacity:1;fill-rule:nonzero;stroke:#000000;stroke-width:1.25;stroke-linecap:round;stroke-linejoin:round;stroke-miterlimit:10;stroke-opacity:1"
       d="m 309.47223,90.342475 h 22.5 v 22.500005 h -22.5 z m 0,0"
       id="path2-3-5" />
    <text
       xml:space="preserve"
       style="font-size:12px;fill:#000000;stroke-width:0.75"
       x="269.65475"
       y="105.9045"
       id="text517-4-9"><tspan
         sodipodi:role="line"
         id="tspan515-3-9"
         style="font-style:normal;font-variant:normal;font-weight:normal;font-stretch:normal;font-size:12px;font-family:Arial;-inkscape-font-specification:Arial;stroke-width:0.75"
         x="269.65475"
         y="105.9045">25</tspan></text>
    <text
       xml:space="preserve"
       style="font-size:12px;fill:#000000;stroke-width:0.75"
       x="291.70605"
       y="105.9045"
       id="text517-2-75-8"><tspan
         sodipodi:role="line"
         id="tspan515-9-5-2"
         style="font-style:normal;font-variant:normal;font-weight:normal;font-stretch:normal;font-size:12px;font-family:Arial;-inkscape-font-specification:Arial;stroke-width:0.75"
         x="291.70605"
         y="105.9045">18</tspan></text>
    <text
       xml:space="preserve"
       style="font-size:12px;fill:#000000;stroke-width:0.75"
       x="314.94147"
       y="105.9045"
       id="text517-2-7-9-3"><tspan
         sodipodi:role="line"
         id="tspan515-9-8-0-2"
         style="font-style:normal;font-variant:normal;font-weight:normal;font-stretch:normal;font-size:12px;font-family:Arial;-inkscape-font-specification:Arial;stroke-width:0.75"
         x="314.94147"
         y="105.9045">11</tspan></text>
  </g>
</svg>
